<svg fill-rule="evenodd" height="314.881155" viewBox="0 0 282.472 280.28798" width="317.580136" xmlns="http://www.w3.org/2000/svg"><g transform="translate(-156.45088 -280.3007)"><path d="m297.638 281.636c76.728 0 139.308 62.58 139.308 139.309s-62.58 139.309-139.308 139.309c-76.729 0-139.309-62.58-139.309-139.309s62.58-139.309 139.309-139.309z" fill="#3737c8"/><g fill="#fff"><path d="m262.79 323.385 3 3.789 4.478-1.581-2.638 4.184 2.997 3.792-4.671-1.235-2.634 4.189-.167-5.157-4.673-1.236 4.471-1.584z"/><path d="m231.477 341.315 4.114 2.536 3.667-3.018-1.047 4.835 4.112 2.538-4.811.438-1.043 4.836-1.921-4.788-4.814.438 3.661-3.02z"/><path d="m208.26 368.982 4.735.975 2.412-4.089.671 4.9 4.731.978-4.372 2.057.676 4.902-3.444-3.844-4.374 2.059 2.409-4.089z"/><path d="m195.984 402.856 4.782-.703.869-4.667 2.307 4.376 4.779-.7-3.404 3.427 2.311 4.376-4.551-2.434-3.406 3.431.865-4.666z"/><path d="m195.929 438.808 4.253-2.295-.78-4.685 3.665 3.322 4.251-2.291-2.027 4.385 3.669 3.322-5.11-.73-2.026 4.387-.784-4.679z"/><path d="m208.134 472.707 3.212-3.611-2.337-4.136 4.582 1.869 3.21-3.607-.404 4.813 4.583 1.867-5.051 1.061-.404 4.815-2.337-4.128z"/><path d="m262.573 518.413.139-4.831-4.447-1.667 4.71-1.512.14-4.829 2.785 3.948 4.712-1.516-3.189 4.059 2.786 3.949-4.443-1.66z"/><path d="m297.996 524.641-1.523-4.587-4.749-.046 3.909-3.031-1.519-4.585 3.966 2.756 3.909-3.035-1.607 4.904 3.968 2.758-4.743-.04z"/><path d="m333.429 518.505-3.001-3.79-4.477 1.581 2.637-4.185-2.997-3.788 4.672 1.233 2.633-4.189.167 5.157 4.672 1.235-4.47 1.585z"/><path d="m364.742 500.574-4.114-2.536-3.667 3.018 1.047-4.836-4.113-2.534 4.812-.44 1.043-4.837 1.921 4.789 4.811-.436-3.659 3.018z"/><path d="m387.958 472.908-4.734-.975-2.413 4.089-.67-4.902-4.731-.974 4.37-2.059-.675-4.902 3.444 3.844 4.372-2.056-2.406 4.086z"/><path d="m258.622 305.274c2.825 0 5.13 2.305 5.13 5.131s-2.305 5.13-5.13 5.13c-2.826 0-5.131-2.304-5.131-5.13s2.305-5.131 5.131-5.131z"/><path d="m230.911 317.638 10.382 13.416-5.593 1.01-4.91-6.209c-.732 1.415-.775 3.064-.708 4.75l-3.788-.012c-.211-.72-.261-1.442-.191-2.15-6.396-.189-4.388 8.322 5.049 6.265l.398 2.889c-5.058.188-12.291 1.076-13.622-5.694-.237-3.055 1.114-5.143 4.052-6.264 1.542-.433 2.979-.48 4.727-.061.371-1.162.7-2.305 1.217-3.397l-1.349-1.729c-6.389 4.31-12.103 8.925-17.054 13.813 4.702 1.286 6.505 3.982 5.409 8.086 3.347.737 5.637.144 8.677-.96l1.61 1.756c-3.092 1.705-6.562 2.792-10.292 3.456-3.218.469-5.75-.005-7.28-1.86-1.187-2.18.002-3.645 2.37-4.039.241-1.911-.803-3.153-3.134-3.728-1.44 1.538-2.806 3.102-4.095 4.691l-4.722-.75c1.785-2.178 3.642-4.298 5.574-6.357l-5.389.57c-.881.049-1.543.376-1.983.981l-1.899 2.729-4.174-1.607 2.859-4.102c.748-1.071 1.712-1.748 3.157-1.561l10.432-.102c6.978-6.937 14.872-13.119 23.807-18.442l3.629 2.687c-1.071.634-2.127 1.276-3.166 1.925z"/><path d="m179.904 444.222c-.541-2.133-1.021-4.245-1.442-6.338l5.322-.928c.601 1.973 1.306 3.935 2.065 5.863-14.114 6.142-2.623 21.792 2.025 12.542.617-2.246.655-4.863-1.098-6.747-.178-.941.364-1.211.952-1.357.064.163.127.327.188.492.434 1.182.611 2.584 1.552 3.514.954.679 1.661.531 2.776-.161 1.257-1.082 3.323-5.588 2.022-9.286-.495-1.095-1.313-1.524-2.61-1.048l-1.771.624-1.483-5.242 4.105-.716 1.741-5.41-16.698 2.783c-.187-1.185-.355-2.365-.505-3.538l13.893-1.573 2.062-5.296-16.493 1.741c-.226-2.742-.349-5.449-.374-8.124 2.131-1.212 3.765-1.029 4.905.55-1.465 1.903-1.334 3.785 1.019 4.57 2.384.314 4.56-1.066 6.594-3.604 2.275-3.028 4.073-6.19 5.172-9.545l-2.375-.186c-1.472 2.88-2.742 4.875-5.693 6.618-2.016-3.785-5.213-4.505-9.592-2.161.191-7.629 1.178-14.994 2.848-22.131l2.676.481-1.588 8.51c-.638 5.022 2.84 6.278 7.719 4.07 2.984-1.384 4.952-3.728 6.945-5.994l-1.13-2.31c-1.587 1.581-4.079 3.47-6.303 4.615-2.289.778-3.505-.559-3.359-2.038l1.697-6.138 7.238 1.301 3.494-4.483-16.098-3.02c.441-1.561.914-3.112 1.418-4.653l13.161 4.447 4.116-3.92-15.57-5.392c.906-2.417 1.884-4.809 2.935-7.178 3.32-.067 4.206 1.706 2.657 5.322-.337.621-.086 1.072.752 1.351 6.659 1.234 10.136-2.285 9.452-8.825l2.895 1.435 4.604-3.332-14.655-7.405c.557-1.011 1.126-2.018 1.707-3.021l-5.038.189c-3.895 6.657-7.147 13.454-9.719 20.409-4.274.735-9.138 1.041-10.761 5.892-2.484 7.088-2.284 15.36 6.213 9.662-3.879 17.916-3.39 36.898 2.015 57.235zm3.032 7.91c-.063-1.254.248-2.329.865-2.36.616-.031.969.987 1.032 2.241s-.188 2.282-.804 2.312c-.617.031-1.031-.939-1.093-2.193zm-5.573-72.795c-.625 1.942-1.198 3.895-1.717 5.862l-3.183 1.21c-.84.271-1.203-.394-.98-1.296l.478-3.224c.308-1.12 1.046-1.771 2.214-1.951zm10.804-14.814c.482-1.003.975-2.002 1.481-2.996l5.555 2.754c1.058 4.395.269 7.455-2.611 7.322 1.556-4.03.081-6.39-4.425-7.08z"/><path d="m388.085 369.183-3.212 3.611 2.336 4.134-4.582-1.869-3.209 3.611.401-4.815-4.581-1.868 5.052-1.06.405-4.816 2.336 4.129z"/><path d="m364.92 341.466-1.782 4.493 3.607 3.085-4.944-.189-1.781 4.491-1.269-4.664-4.943-.186 4.384-2.725-1.266-4.664 3.607 3.081z"/><path d="m298.223 317.249 1.523 4.587 4.748.046-3.909 3.029 1.52 4.589-3.967-2.758-3.909 3.035 1.608-4.904-3.97-2.759 4.744.041z"/><path d="m287.246 313.496-1.485-21.252 6.599-.461 1.486 21.253z"/><path d="m296.753 312.715.373-21.361 6.18.108 7.049 12.205-.424-5.693.109-6.393 5.31.094-.373 21.361-5.434-.161c-.538-.978-1.357-2.36-2.443-4.14-1.082-1.781-2.06-3.463-2.92-5.052-.683-1.216-1.485-2.8-2.401-4.767.3 1.827.445 2.878.44 3.147l-.187 10.745z"/><path d="m317.745 313.626 4.793-20.756 9.047 2.091c1.372.316 2.578.87 3.618 1.662 1.041.791 1.858 1.734 2.459 2.815.6 1.082.988 2.324 1.164 3.727s.093 2.837-.248 4.312c-.424 1.832-1.18 3.457-2.272 4.875-1.092 1.414-2.531 2.428-4.322 3.034-1.786.605-3.841.641-6.16.109zm7.474-3.246c1.884.606 3.369.466 4.466-.419 1.098-.88 1.843-2.179 2.242-3.897.404-1.75.269-3.302-.409-4.648s-1.91-2.117-3.691-2.319z"/><path d="m337.598 319.195 7.635-19.891 6.174 2.37-7.634 19.892z"/><path d="m344.977 322.12 16.268-15.451 5.973 3.313-4.534 21.956-5.839-3.24.922-4.285-4.969-2.754-3.095 3.08zm14.094-2.309 1.475-6.18-4.487 4.508z"/><path d="m363.303 333.113 13.737-16.366 4.736 3.975-2.205 13.928 3.251-4.694 4.115-4.902 4.068 3.416-13.737 16.367-4.125-3.545c.196-1.103.434-2.687.709-4.752.274-2.071.579-3.991.911-5.766.233-1.372.605-3.111 1.128-5.212-.916 1.609-1.46 2.515-1.635 2.722l-6.905 8.23z"/><path d="m402.138 341.56 6.138 9.452c.678 1.04 1.144 2.039 1.398 3.002.248.957.315 1.858.196 2.702-.118.844-.408 1.62-.869 2.34-.456.719-1.087 1.35-1.895 1.899-1.025.668-2.143 1.025-3.349 1.082-1.211.062-2.375-.337-3.498-1.191l-5.673 8.313-3.955-6.092 5.114-7.174-1.045-1.61-6.874 4.461-3.607-5.548zm-.223 8.034-3.411 2.215 1.703 2.629c.419.642.9 1.025 1.454 1.149.549.125 1.056.037 1.527-.269.466-.305.756-.745.865-1.319.103-.575-.052-1.186-.466-1.828z"/><path d="m394.967 369.128 22.365-1.77 2.562 6.335-17.339 14.208-2.5-6.191 3.406-2.753-2.128-5.269-4.342.45zm12.407 7.08 5.031-3.876-6.325.678z"/><path d="m402.491 389.185 20.673-5.15 1.599 6.418-20.673 5.15z"/><path d="m404.565 398.662 21.097-2.966.916 6.516-15.932 2.242 1.17 8.302-5.165.725z"/><path d="m406.757 416.985 21.646-4.12-.424 6.045-12.635 2.164 12.221 3.783-.363 5.146-12.577 2.261 12.148 3.841-.347 5.021-20.854-7.19.378-5.424 12.075-2.143-11.671-3.618z"/><path d="m405.047 436.84 18.924 12.044-1.765 6.599-22.397.912 1.729-6.45 4.374-.145 1.475-5.486-3.737-2.257zm5.653 13.121 6.345-.067-5.455-3.266z"/><path d="m398.239 459.014 8.199 3.654 14.167-1.512-2.904 6.522-7.842.59 4.876 6.077-2.314 5.191-8.561-11.087-8.224-3.592z"/><path d="m397.642 474.262-2.443 5.606c-.828-.301-1.646-.264-2.459.119-.807.377-1.475.906-1.992 1.578-.409.647-.653 1.243-.735 1.776-.088.538.026.911.331 1.123.647.378 1.904-.269 3.768-1.946 1.868-1.672 3.597-2.826 5.191-3.453 1.589-.631 3.391-.088 5.404 1.625.937.756 1.537 1.745 1.806 2.972.27 1.221.233 2.525-.103 3.907-.331 1.382-.911 2.656-1.729 3.825-1.081 1.548-2.422 2.697-4.016 3.463-1.6.766-3.334.932-5.207.502l1.703-5.362c.709.217 1.387.176 2.028-.13.647-.31 1.186-.776 1.626-1.402.383-.544.605-1.071.673-1.579.062-.512-.037-.859-.311-1.051-.491-.419-1.19-.238-2.101.539-.911.776-1.983 1.734-3.22 2.862-1.231 1.134-2.562 1.864-3.98 2.195-1.424.331-2.966-.047-4.627-1.134-1.253-.849-2.066-1.941-2.454-3.271-.383-1.33-.383-2.753-.005-4.27.383-1.517 1.04-2.94 1.977-4.281 1.377-1.967 3.064-3.385 5.062-4.249 1.993-.865 3.934-.849 5.813.036z"/><path d="m400.235 439.033-4.783.703-.868 4.668-2.307-4.378-4.779.703 3.401-3.429-2.308-4.375 4.55 2.433 3.406-3.427-.864 4.662z"/><path d="m400.29 403.082-4.253 2.295.78 4.683-3.665-3.323-4.251 2.296 2.024-4.387-3.667-3.322 5.11.73 2.028-4.385.782 4.677z"/><path d="m333.645 323.477-.138 4.831 4.445 1.665-4.71 1.514-.138 4.83-2.787-3.949-4.708 1.516 3.186-4.061-2.785-3.949 4.445 1.661z"/><path d="m298.109 332.64c48.611 0 88.257 39.647 88.257 88.257s-39.646 88.257-88.257 88.257c-48.61 0-88.257-39.647-88.257-88.257s39.647-88.257 88.257-88.257z"/></g><path d="m298.109 342.071c43.416 0 78.827 35.41 78.827 78.826 0 43.417-35.411 78.827-78.827 78.827s-78.826-35.41-78.826-78.827c0-43.416 35.41-78.826 78.826-78.826z" fill="#273785"/><path d="m298.109 338.629c45.312 0 82.268 36.956 82.268 82.268s-36.956 82.269-82.268 82.269-82.268-36.957-82.268-82.269 36.956-82.268 82.268-82.268z" fill="#3737c8"/><path d="m238.05 369.944h120.118c3.255 3.83 6.151 7.972 8.637 12.375h-137.392c2.486-4.403 5.382-8.545 8.637-12.375z" fill="#fff"/><path d="m254.911 355.022h86.397c5.355 3.527 10.257 7.688 14.6 12.375h-115.597c4.343-4.687 9.245-8.848 14.6-12.375z" fill="#fff"/><path d="m228.033 384.866h140.153c2.039 3.945 3.754 8.081 5.111 12.375h-150.375c1.357-4.294 3.071-8.43 5.111-12.375z" fill="#fff"/><path d="m222.165 399.788h151.888c1.118 4.007 1.923 8.142 2.394 12.374h-156.676c.471-4.232 1.277-8.367 2.394-12.374z" fill="#fff"/><path d="m219.526 414.71h157.167c.16 2.042.243 4.105.243 6.187s-.084 4.146-.243 6.187h-157.167c-.16-2.041-.243-4.105-.243-6.187s.083-4.145.243-6.187z" fill="#fff"/><path d="m219.771 429.632h156.676c-.47 4.233-1.276 8.367-2.394 12.374h-151.888c-1.117-4.007-1.924-8.141-2.394-12.374z" fill="#fff"/><path d="m222.922 444.554h150.375c-1.357 4.293-3.072 8.43-5.111 12.374h-140.153c-2.04-3.944-3.755-8.081-5.111-12.374z" fill="#fff"/><path d="m229.413 459.476h137.392c-2.485 4.403-5.381 8.545-8.636 12.374h-120.119c-3.255-3.829-6.151-7.971-8.637-12.374z" fill="#fff"/><path d="m240.311 474.398h115.597c-4.343 4.687-9.245 8.847-14.6 12.374h-86.398c-5.354-3.527-10.257-7.687-14.599-12.374z" fill="#fff"/><path d="m337.797 352.839h-79.376c11.669-6.839 25.233-10.768 39.688-10.768s28.019 3.929 39.688 10.768z" fill="#fff"/><path d="m258.421 488.956h79.376c-11.668 6.839-25.233 10.768-39.688 10.768s-28.019-3.929-39.688-10.768z" fill="#fff"/><path d="m291.782 383.358-31.707 14.044-.437 92.269 37.722 23.99 5.851-.02 36.916-26.326.043-58.029z" fill="#3737c8"/><path d="m339.202 431.669c-.058 11.444-.116 20.294-.175 31.739-6.933.06-14.7.064-22.763.036h-32.127c-8.309.071-16.321.025-23.451-.036-.057-11.087-.113-19.739-.169-30.674-.002-.353-.09-1.412-.006-1.065 3.231 13.219 11.83 22.476 23.231 27.92v-2.199h37.01c8.917-5.672 15.832-14.447 18.45-25.721z" fill="#fff"/><path d="m217.393 406.317c10.538-12.502 100.198-99.879 91.038-31.776-4.79-2.653-10.299-2.612-14.881-.171-.271-5.998-3.548-9.609-17.563-4.693-22.888 10.147-41.42 26.325-59.048 43.756.152-2.372.303-4.744.454-7.116z" fill="#3737c8"/><path d="m290.19 375.564c3.153 2.327 2.186 4.81.633 6.803 6.748.099 13.782.141 20.53.24-2.334-2.036-1.825-4.864.396-7.043-7.274-6.073-14.056-6.436-21.559 0z" fill="#3737c8"/><path d="m300.365 381.571c22.478 0 40.81 18.333 40.81 40.81 0 22.478-18.332 40.81-40.81 40.81-22.477 0-40.809-18.332-40.809-40.81 0-22.477 18.332-40.81 40.809-40.81z" fill="#3737c8"/><path d="m300.365 382.457c21.99 0 39.925 17.935 39.925 39.924 0 21.99-17.935 39.925-39.925 39.925-21.989 0-39.924-17.935-39.924-39.925 0-19.241 13.732-35.377 31.896-39.11 2.595-.534 5.28-.814 8.028-.814z" fill="#fff"/><path d="m300.562 384.06c20.998 0 38.124 17.126 38.124 38.124 0 7.006-1.908 13.579-5.228 19.231l-19.049-9.719c-4.626 0-9.252 0-13.863 0-4.627 0-9.238 0-13.848 0l-19.034 9.719c-3.321-5.651-5.228-12.225-5.228-19.231 0-20.998 17.128-38.124 38.126-38.124z" fill="#3737c8"/><path d="m260.529 464.893h78.746v8.774h-78.746z" fill="#fff"/><path d="m260.575 473.84h78.715v13.513l-14.275 8.204-1.361.783-23.62 13.576-.136.068-39.323-22.631z" fill="#fff"/><path d="m293.984 375.717c4.83-1.603 9.423-1.775 14.135 0 .481.181.997.307.997.682v.934c0 .375-.538.887-.997.682-4.83-2.155-9.266-2.069-14.135 0-.465.198-.997-.307-.997-.682 0-.311 0-.623 0-.934 0-.375.504-.518.997-.682z" fill="#fff"/><path d="m261.245 399.006c2.73-1.255 5.409-2.411 8.139-3.666-4.064 4.64-6.251 10.112-8.274 14.257-.037-3.17.16-7.256.135-10.591z" fill="#fff"/><path d="m270.874 427.405c1.166-.198 2.115-.024 2.364.514.233.502-.199 1.197-1.034 1.817.779 1.234 1.682 2.477 2.708 3.729.399 1.928-.319 2.484-2.155 2.335-1.174-1.624-2.202-3.256-3.075-4.894-1.408.361-2.625.224-2.912-.396-.286-.615.427-1.521 1.655-2.221-3.269-7.659-2.95-15.389 2.348-22.869-1.081-.854-1.626-1.83-1.251-2.393.395-.593 1.688-.543 3.074.058 1.338-1.564 2.904-3.116 4.71-4.652 1.487-1.001 2.93.186 1.914 1.425-1.744 1.519-3.269 3.033-4.58 4.542.824.767 1.201 1.576.873 2.068-.352.529-1.416.547-2.624.119-5.043 6.888-5.617 13.732-2.015 20.818z" fill="#fff"/><path d="m330.25 427.405c-1.166-.198-2.114-.024-2.363.514-.233.502.199 1.197 1.034 1.817-.779 1.234-1.682 2.477-2.708 3.729-.399 1.928.319 2.484 2.155 2.335 1.173-1.624 2.202-3.256 3.075-4.894 1.407.361 2.624.224 2.912-.396.286-.615-.427-1.521-1.656-2.221 3.27-7.659 2.95-15.389-2.347-22.869 1.081-.854 1.625-1.83 1.25-2.393-.394-.593-1.688-.543-3.074.058-1.338-1.564-2.903-3.116-4.71-4.652-1.486-1.001-2.929.186-1.913 1.425 1.744 1.519 3.269 3.033 4.579 4.542-.824.767-1.201 1.576-.872 2.068.351.529 1.416.547 2.624.119 5.043 6.888 5.617 13.732 2.014 20.818z" fill="#fff"/><path d="m300.561 399.535c12.476 0 22.651 10.175 22.651 22.651 0 12.475-10.176 22.65-22.651 22.65s-22.65-10.175-22.65-22.65c0-12.476 10.175-22.651 22.65-22.651z" fill="#fff"/><path d="m220.848 404.002c10.431-10.432 94.415-91.843 86.407-30.73-5.643-.584-8.812-.686-12.589-.057.219-5.57-5.868-9.756-18.435-4.747-21.987 9.218-38.477 23.37-55.41 39.206.046-2.155-.043-1.517.027-3.672z" fill="#fff"/><path d="m300.841 378.485c4.754 0 8.631 3.932 8.631 8.754 0 4.821-3.877 8.754-8.631 8.754-4.753 0-8.631-3.932-8.631-8.754s3.878-8.754 8.631-8.754z" fill="#fff"/><path d="m297.487 393.999c2.159 2.316 3.755 2.839 6.753.065l.593 7.021c-2.967-1.258-5.207-1.248-7.935-.286z" fill="#fff"/><path d="m297.968 396.266c1.984 1.25 3.318 1.68 5.81-.142l.478 3.916c-2.504-.799-4.418-.788-6.782-.211z" fill="#3737c8"/><path d="m300.859 379.976c3.957 0 7.184 3.228 7.184 7.184 0 3.957-3.227 7.184-7.184 7.184-3.956 0-7.183-3.227-7.183-7.184 0-3.956 3.227-7.184 7.183-7.184z" fill="#3737c8"/><path d="m295.918 381.953v10.414c-.401-.382-.759-.809-1.064-1.273v-7.867c.305-.465.663-.892 1.064-1.274z" fill="#fff"/><path d="m298.655 380.324v13.673c-.369-.12-.724-.268-1.064-.442v-12.789c.34-.175.695-.323 1.064-.442z" fill="#fff"/><path d="m301.392 379.996v14.328c-.176.013-.354.02-.533.02s-.356-.006-.532-.019v-14.329c.176-.013.353-.02.532-.02s.357.007.533.02z" fill="#fff"/><path d="m304.128 380.766v12.789c-.34.174-.696.322-1.064.442v-13.673c.368.119.724.267 1.064.442z" fill="#fff"/><path d="m306.865 383.227v7.866c-.305.465-.663.892-1.064 1.274v-10.413c.401.381.759.809 1.064 1.273z" fill="#fff"/><path d="m260.437 452.348 2.14-.066.126-3.014 6.935.005.46.496.122 2.251 2.684.09-1.386-1.166 2.455 2.03-.032 9.35-13.495-.094z" fill="#3737c8"/><path d="m339.816 452.348-2.367-.066-.011-3.014-6.463.005-.443.496-.116 2.251-2.58.09 1.332-1.166-2.359 2.03.031 9.35 12.968-.094z" fill="#3737c8"/><path d="m260.053 470.297h80.086v1.388h-80.086z" fill="#3737c8"/><path d="m259.957 463.468h80.182v1.53h-80.182z" fill="#3737c8"/><path d="m259.861 473.3h79.984v.828h-79.984z" fill="#273785"/><path d="m276.922 460.578c3.613 0 6.559 2.946 6.559 6.558 0 3.613-2.946 6.559-6.559 6.559-3.612 0-6.558-2.946-6.558-6.559 0-3.612 2.946-6.558 6.558-6.558z" fill="#3737c8"/><path d="m323.216 460.578c3.613 0 6.559 2.946 6.559 6.558 0 3.613-2.946 6.559-6.559 6.559-3.612 0-6.558-2.946-6.558-6.559 0-3.612 2.946-6.558 6.558-6.558z" fill="#3737c8"/><path d="m296.44 466.79v-1.233h5.904v1.233z" fill="#3737c8"/><path d="m295.32 465.557h1.232v3.428h-1.232z" fill="#3737c8"/><path d="m293.085 465.358h1.233v4.98h-1.233z" fill="#3737c8"/><path d="m302.311 465.557h1.232v4.747h-1.232z" fill="#3737c8"/><path d="m305.487 464.435h1.232v5.903h-1.232z" fill="#3737c8"/><path d="m276.922 461.723c2.982 0 5.413 2.431 5.413 5.413s-2.431 5.414-5.413 5.414-5.414-2.432-5.414-5.414 2.432-5.413 5.414-5.413z" fill="#fff"/><path d="m323.216 461.723c2.983 0 5.414 2.431 5.414 5.413s-2.432 5.414-5.414 5.414c-2.981 0-5.413-2.432-5.413-5.414s2.432-5.413 5.413-5.413z" fill="#fff"/><path d="m267.372 453.691c1.62 0 2.943 1.439 2.943 3.203s-1.323 3.202-2.943 3.202c-1.621 0-2.943-1.438-2.943-3.202s1.322-3.203 2.943-3.203z" fill="#fff"/><path d="m333.647 453.691c-1.621 0-2.943 1.439-2.943 3.203s1.322 3.202 2.942 3.202c1.621 0 2.943-1.438 2.943-3.202s-1.322-3.203-2.942-3.203z" fill="#fff"/><path d="m260.228 397.914-.308 87.709-49.408 17.139 17.474-31.857-2.477-3.738 10.768-17.693.676-3.982 6.696-11.761 2.71-15.712z" fill="#3737c8"/><path d="m259.928 485.144.059 14.068-49.634 3.707 1.883-1.069z" fill="#3737c8"/><path d="m210.437 502.991c-.021.645.084 1.575.062 2.22 2.129.361 4.349 1.391 6.478 1.751 1.623 1.38 3.192 1.663 4.644-.463 2.472 4.537 4.966 4.253 7.612-.697 2.602 6.065 7.127 5.558 8.022-.85.014-.101-.101-.128-.088-.232 1.81 10.096 9.252 9.559 11.739-1.469 2.688 12.129 11.653 5.888 11.137-4.102-16.168 1.599-33.437 2.244-49.606 3.842z" fill="#3737c8"/><path d="m259.916 401.64-.591 83.109-46.514 16.04 17.016-30.173-2.402-3.905 10.689-17.51.309-3.084 6.838-11.79 2.762-15.448z" fill="#fff"/><path d="m259.35 491.989-.023 6.63-47.296 3.628z" fill="#fff"/><path d="m259.362 486.329-.037 3.869-44.974 11.354z" fill="#fff"/><path d="m211.214 503.722c-.021.601-.132.907-.153 1.508 2.072.336 4.234 1.296 6.306 1.632 1.58 1.286 3.108 1.55 4.521-.432 2.407 4.228 4.834 3.964 7.409-.649 2.534 5.653 6.938 5.18 7.81-.792.013-.095-.099-.119-.087-.217 1.762 9.409 9.007 8.909 11.428-1.369 2.616 11.304 11.347 5.844 10.845-3.467-15.74 1.49-32.34 2.297-48.079 3.786z" fill="#fff"/><path d="m241.967 448.332 8.148-9.322v17.953l-8.148 5.8z" fill="#3737c8"/><path d="m231.214 481.769 4.263-3.364.069 7.167-4.263 2.57z" fill="#3737c8"/><path d="m225.761 486.54 3.414-2.695.055 5.741-3.414 2.059z" fill="#3737c8"/><path d="m221.638 490.66 2.379-1.877.038 3.999-2.379 1.434z" fill="#3737c8"/><path d="m218.136 494.231 1.531-1.208.025 2.575-1.532.924z" fill="#3737c8"/><path d="m215.254 496.772.93-.734.015 1.563-.93.561z" fill="#3737c8"/><path d="m275.119 476.431-3.257-.022v3.263z" fill="#fff"/><path d="m261.715 475.538h4.039v4.039h-4.039z" fill="#3737c8"/><path d="m281.6 475.538h4.04v4.039h-4.04z" fill="#3737c8"/><path d="m301.486 475.538h4.039v4.039h-4.039z" fill="#3737c8"/><path d="m320.904 475.538h4.039v4.039h-4.039z" fill="#3737c8"/><path d="m270.903 484.04h4.04v4.039h-4.04z" fill="#3737c8"/><path d="m311.546 484.04h4.04v4.039h-4.04z" fill="#3737c8"/><path d="m331.867 484.04h4.04v4.039h-4.04z" fill="#3737c8"/><path d="m281.652 492.212h4.04v4.039h-4.04z" fill="#3737c8"/><path d="m301.486 492.212h4.039v4.039h-4.039z" fill="#3737c8"/><path d="m311.015 500.744h4.039v1.991l-4.017 2.314z" fill="#3737c8"/><path d="m291.224 484.04h4.04v4.039h-4.04z" fill="#3737c8"/><path d="m291.456 500.744h4.039v4.04h-4.039z" fill="#3737c8"/><path d="m320.904 492.212h4.039v3.292l-1.379.747h-2.66z" fill="#3737c8"/><path d="m277.43 475.539-6.527-.001v6.587zm-2.311 1.01-3.257-.023v3.264z" fill="#3737c8"/><path d="m297.752 475.539-6.528-.001v6.587zm-2.312 1.01-3.257-.023v3.264z" fill="#3737c8"/><path d="m318.073 475.539-6.527-.001v6.587zm-2.311 1.01-3.257-.023v3.264z" fill="#3737c8"/><path d="m338.395 475.539-6.528-.001v6.587zm-2.312 1.01-3.256-.023v3.264z" fill="#3737c8"/><path d="m268.285 484.041-6.527-.002v6.588zm-2.311 1.009-3.257-.022v3.263z" fill="#3737c8"/><path d="m288.128 484.041-6.528-.002v6.588zm-2.312 1.009-3.257-.022v3.263z" fill="#3737c8"/><path d="m308.013 484.041-6.527-.002v6.588zm-2.311 1.009-3.257-.022v3.263z" fill="#3737c8"/><path d="m327.432 484.041-6.528-.002v6.588zm-2.312 1.009-3.257-.022v3.263z" fill="#3737c8"/><path d="m277.43 492.213-6.527-.001v1.15l.99.572 1.737 1.094.804.557zm-2.311 1.126-3.257-.025v.522l1.798 1.122z" fill="#3737c8"/><path d="m297.656 492.213-6.528-.001v6.588zm-2.312 1.01-3.256-.023v3.264z" fill="#3737c8"/><path d="m317.881 492.213-6.527-.001v6.588zm-2.311 1.01-3.257-.023v3.264z" fill="#3737c8"/><path d="m288.128 500.746-6.528-.002v2.894l2.281 1.393zm-2.312 1.009-3.257-.022v2.45l.517.3z" fill="#3737c8"/><path d="m308.013 500.861-6.527-.001v6.587zm-2.311 1.01-3.257-.023v3.264z" fill="#3737c8"/><path d="m273.624 440.117c-.229.079-.485.411-.31.915.966.682 2.264 1.618 3.369 2.678 1.008 2.224-.448 3.383-1.97 1.362-.817-.095-1.105.787-.155 1.553-.01 1.115.199 2.468.689 3.635s1.275 2.153 2.417 2.527c.407-.315.348-.394-.105-.953-1.464-.787-2.072-2.732-1.912-4.105.517-.145 4.083 1.93 4.201 2.251.091 1.243.065 2.644.15 3.889.208.307.464.367.746.088 0-.841-.116-2.724-.068-4.31.047-1.588.261-2.886.924-2.559 1.996 1.018 3.896 2.024 5.776 2.849 1.153 1.081.576 2.541-.978 1.874-3.517-3.972-5.125.063-2.775 3.811.48.122.635-.11.571-.693-1.757-3.332-.39-4.807 1.633-2.734-.763 3.148 2.925 6.448 4.592 3.49.047.748.053 2.25.1 3.002.289.185.604.302.823-.032 0-1.234 0-2.408 0-3.581 0-1.17 0-2.342 0-3.578.929-.066 1.826.087 2.69.457.097.928.166 1.817.026 2.613-1.643.294-.201 4.19 1.063 1.617.742.01 1.484.076 2.227.082v3.54c.245.146.448.149.619.004.026-1.252.054-2.507.08-3.758.026-1.253.053-2.51.079-3.765 1.586-.057 3.182-.185 4.635-.036.085.17.171.271.256.442.128 1.032.08 2.292-.006 3.303-.822 2.18-3.031 1.186-2.765-.27-.337-2.615 2.316-.656 1.868-2.488-1.969-.58-2.834 1.199-2.589 2.926.321 1.521 1.223 2.318 3.427 1.646.086.545-.01 1.269.081 1.814.224.237.48.265.726.017-.027-1.245-.006-2.508.01-3.772.017-1.264.043-2.53.021-3.773.583-.298.988-.274 1.191-.402.15-.094.108-.377.033-.85-2.281.569-4.623.543-6.834.323-.704-1.308-1.473-2.484-2.386-3.646-.38-.061-.481-.034-.518.359.801 1.252 1.484 2.162 1.917 3.193-4.064-.106-7.89-1.237-11.301-2.837-2.194-1.057-4.32-2.237-6.353-3.577-2.044-1.348-4.015-2.865-5.915-4.541zm4.447 4.865c.646.032 1.889.906 1.889 1.674 0 .769.14 1.741-.603 1.678-.747-.066-1.766-.704-1.794-1.503-.021-.798-.144-1.887.508-1.849zm10.789 5.777c.63-.079 1.126.191 1.681.499 0 1.164-.059 2.787-.38 3.341-1.238 2.136-3.895.275-3.212-1.469 1.189.342 1.964-.343 1.911-2.371zm8.376 2.252c0 .541.128 1.811-.273 1.922-.437.127-.951.082-1.404.002-.267-.043-.635-.048-.641-.336-.01-1.55-.213-2.516.465-2.53.832-.017 1.857.203 1.853.942z" fill="#3737c8" stroke="#273785" stroke-width=".216"/><path d="m307.239 450.287c-.186.358-.054.604.171.802 1.057-.211 2.04-.484 3.096-.829.427.468.519.946.257 1.442-.919.709-1.895.944-2.889 1.049-.427.306-.289.611-.101.814 1.746.066 1.169 3.106-.155 2.969-.96-.194-1.564-.71-2.092-1.546-.309-.068-.449.172-.278.618.492 1.282 1.506 1.815 2.386 1.914 1.927-.308 1.986-1.617 1.891-3.872.512-.698 1.051-.723 1.488-.081.081 1.217.102 2.431.177 3.647.234.435.469.285.705.05-.033-1.222-.071-2.423-.102-3.619-.031-1.199-.069-2.398-.101-3.621 1.025-.42 2.171-.969 3.197-1.4 1.26-.095.908 2.011-.796 2.571-1.115.364.272 5.601 4.175 1.031.011.585.021 1.243.033 1.832.24.292.565.301.736-.047.006-1.241.006-2.492.006-3.74 0-1.25 0-2.499.004-3.741 1.767-1.401 3.769-2.795 5.562-4.565.204.349.167 1.626.075 2.084-2.108.539-3.415 1.997-4.041 3.857-.929 2.776 2.013 5.56 1.714 3.094-1.088-.502-1.051-2.281-.464-3.723.586-1.44 1.724-2.55 2.845-1.704.042 1.258.058 2.371.054 3.662.224.337.693.176.763-.182-.016-1.302-.016-2.556-.016-3.805s0-2.498-.011-3.803c.065-.196-.091-.273-.037-.389.159-.352.529-.524.95-1.058.081-.214.027-.655-.309-.745-.224.149-.7.722-.924.87-.704-.281-1.378-1.128-2.055-1.737-.561.016-.646.352-.587.755.545.516 1.399 1.405 1.938 1.911-2.286 2.344-5.038 4.345-8.008 5.9-2.953 1.547-6.14 2.648-9.257 3.335zm9.043-2.115c.811-.65 1.238-1.026 1.527-.87.518.285.534 2.713.25 3.597-.496 1.562-3.175 3.112-2.839.777.769-.519 1.884-1.076 1.062-3.504z" fill="#3737c8" stroke="#273785" stroke-width=".216"/><path d="m299.86 402.775c.785.408 1.178 0 1.57 0 .786 0 1.571 0 1.963.408.393.407.393.815.785 1.222 0 .407-.392 1.222.393 1.63 0 .407 0 .407.393.815.392-.408 1.57-.408 1.963-1.223.392-.407.785-.407 1.57 0 .393 0 .785.408 1.178.815 0 .408 0 .815.393.815.785 0 1.57 0 1.57.815-.393 1.222 1.963 2.037.785 3.26-.785.407-1.178 1.222-1.57 1.629-.785 0-.393 1.223-1.178.815-.393 0-.393-1.222-.785-.815 0 .408.392.815.392 1.223.393.407 0 1.222.393 1.63-.393.407.785 1.222 0 2.037.393.815-.785 1.222-.393 2.037-.785.408-.392.815-.785 1.222-.393.815-.785.815-.785 1.63-.393.408 0 1.223 0 1.63 0 1.63-1.178 2.852 0 4.482 0 .408 0 .815.392 1.222.393 0 1.178-.407 1.571.408 0 .407.785.815.393 1.222-.393.815.392.815.392 1.222 1.178.408.393 1.63 1.571 2.445.392.815-1.178.815-.786 2.038 0 .407-.392.815-.392 1.222-.785.815-1.178 1.222-1.963 1.222-.393.408 0 .815-.393 1.222-.785.408-1.57.408-2.355.408-1.178 0-2.356 0-3.534 0-.392 0 0 0-.392 0h-7.853c-.392.408-.392-.408-.785-.408s0-.814-.393-1.222c-.785 0-1.177 0-1.57 0-.785-.815-1.178-2.037-1.178-2.852-.392-.407-.392-.407-.392-.815 0-.407.392-.407.392-.815 0-.815 0-1.629.393-2.037s.393-.815.785-.815v-.407s0-.408 0-.815c.393-.408.393-1.63 1.57-1.223-.392-.407.393-.407.393-.407 0-1.222.785-2.445 0-3.667 0-1.223-.393-2.445 0-3.26-.393-.407-.393-.407-.785-.815.392-.407-.785-.815-.393-1.222-.785-.407-.785-1.222-1.177-2.037-.393-.408 0-1.63-.393-2.038.393-.407 0-1.222.785-1.629-.392-.815.393-.815.393-1.63-.393 0 0 0-.393 0 0 0 0 .815-.392.815-.786 0-.786-.815-1.178-.815-.393-.408-.393-1.222-1.178-1.222 0-.815-.785-.815-.393-1.63 0-.815.785-1.223.785-2.038.393-.814 1.571-.814 1.964-2.037.392-.815 1.177-.407 1.57-.815.785-.407 1.178 1.223 2.356.815h.785c0-.407.392-.407.392-.815 0-.815-.392-1.222 0-2.037.393-.407 1.178 0 1.178-.407.393.407.785-.408 1.178 0 .392-.408.785 0 1.178-.408zm.785.408c.393.407.393.815 0 1.222.785.407 1.963.407 2.356 1.222 0 .815.785 1.223 0 1.63-.393 0 0 .815-.393.408-.392 0-.392-.408-.392-.408l.785-.815c-.393 0-.785 0-.785.408-.393 0-.393-.408-.786-.408.393-.407.393-.407.786-.407 0 0 .392.407.392 0-.392 0-.392-.815-.785-.408-.393.408-.393.815-.785.815 0-.407.392-.815.392-.815.786-.407.786 0 1.178.408.393-.408-.392-.815-.392-.815-.786-.408-1.178.407-1.571.815-.392.407.393.815 0 1.222h-.785c0-.407.393-.815 0-1.222 0-.408-.393-.815-.786-.815-.785 0-1.177.407-1.177.815 0 0 .392-.408.392-.408.393-.407.785 0 .785 0 0 .408.393.408.393.815-.393-.407-.785-1.222-1.178-.815 0 .408-.785.408-.392.815.392 0 .392-.407.785-.407l.392.407c0 .408-.785.408-.785.408-.392-.408-.392-.408-.785-.408.393.408.785.408 1.178.815-.393 0-.393.408-.785.815 0 .407 0 .815.392 1.222h.393c0-.407-.393 0-.393-.407.393.407 1.178 0 1.571-.408s-.393.408-.786 0c0 .408-.392.408-.392 0-.393 0-.785 0-.393-.407 0 .407.785.407 1.178.407-.393 0-.785-.407-1.178-.814h.393c0 .407.392.814.785.407 0 0 0 .407.393 0-.393 0-.786 0-1.178-.407 0-.408.392-.408.392-.408 0 .408 0 .408.393.815.393 0 .786.407 1.178 0h.393-.393c.393.407.785.407 1.178.407s.393-.407.785-.407c0 .407-.392.407-.392.407-.786.408-1.178 0-1.571-.407v.407c0 .408.393.408.785.408.393 0 1.178 0 1.178-.408 0 0 0-.407.393-.407v.407.408c-.393.407 0 .815-.393 1.222 0-.407 0 0-.392 0 0 0 .392-.407.392-.407 0-.408.393-.815.393-1.223-.393.408-.785.815-1.178.815-.785 0-1.178-.407-1.57-.815-.393.408-1.179 1.223-1.964.815 0 0-.392-.407-.785-.407.393 0 0 .815.393 1.222.392 0 .785 0 .785.408v.407c-.393 0-.393-.815-1.178-.815 0-.407.393-.815 0-1.222 0-.408.393-.408.393-.815 0-.815-1.178-.815-.393-1.63 0-.407 0-.815 0-.815.785-.815 1.57-1.222 2.749-1.222h.392c0-.407-.392-1.222 0-1.222zm1.178 0c-.393.407-.393.815-.393 1.222-.392-.407-.392-.815 0-.815 0-.407 0-.407.393-.407zm-2.356.407v.815c-.393-.407-.393-.815-.393-1.222.393 0 .393.407.393.407zm3.534 0c.392.408-.785.408-.393 1.222.393-.407.393 0 .785 0-.392-.407-.392-.407-.392-.814h.392c0 .814.785 1.222 0 1.629.393.408.393.815.785 1.223 0 .407-.392.407 0 .815v1.629.408l-.392-.408v.815s-.393 0-.393-.407c0 0-.392-.408 0-.815 0-.408 0-.408 0-.815.393 0 .393-.815.393-1.222l-.785-.815c.392-.408.392-.815 0-1.223-.393 0-.785 0-.785-.407v-.407h.392c0-.408 0-.408 0-.408-.392 0-.392 0-.785 0 0 0 .393 0 .393-.407.392 0 .785 0 .785.407zm-4.319 0v.815c0-.407-.393-.407-.393-.815zm-.393.815s-.392-.407-.785-.407c0 .407.393.407.393.407s-.393-.407-.393-.407c0 .407 0 .407-.392.407.392 0 .392.407.392.407v-.407.815c0 .407-.392.815-.392 1.222-.786.815.785 2.445-.393 2.445h-.393c.393-.408 0-.815 0-1.222h.393v.407h.393c0-.407-.393-.815-.786-1.222 0-.408 0-.815.393-1.223.393 0 .393 1.223.393.408 0-.408-.393-.815 0-1.223h-.393c0-.407 0-.814.393-.814.392-.408.392 0 .392-.408.393 0 .785.408.785.815zm10.208 2.037s0 .408.393.408h.392s0 .407-.392.815c-.393 0-.393-.408-.786 0 0 .407.786 1.222 0 1.222-.392 0-.392.407-.392.407-.393.408 0 .408 0 .815-.393 0-.393-.407-.393-.407-.392-1.223 1.178-.815.785-1.63v-.407c0 .814-1.57.407-1.177 1.629h-.393c0-.815.393-1.222.393-1.629s0 0-.393 0v-.408c0-.815.393-1.222.785-1.222.393 0 1.178 0 1.178.407zm-14.526 1.223c0 .407-.393.407 0 .814-.393.408 0 .815-.393 1.223s-.393 0-.393-.408c0 .408.393.408.393.815v.408c-.393 0-.393-.408-.785-.408-.393 0-.393 0-.393-.407.393.407.393.407.393.407 0-.407.392-.407 0-.407 0-.408-.393-.408-.393-.408.393 0 .785-.407.785-.815 0-.407 0-.814-.392-1.222-.393 0-.393 0-.393 0 .393.408.393.815.393 1.222 0 0-.393.408-.393.408 0-.408.393-.408 0-.815 0-.407-1.177 0-1.177-1.222.392-.408 1.177.407.785-.408h.392s.393-.407.785-.407c.786 0 .786.815.786 1.63zm1.178-.815c-.393-.408-.393.407-.786 0v-.408s.393.408.786.408zm.785.407c-.393 0-.393 0-.785-.407.392 0 .785 0 .785.407zm10.208-.407c0 .407.392 1.222-.393 1.629-.785-.407-.785 1.223-1.178 0 0-.407.393-1.222.785-1.629.393.407.393 0 .786 0zm-4.712.815s0 0-.392 0c.392 0 .392-.408.392-.408.393 0 .393.408 0 .408zm4.319 0c-.393 0-.785.407-.785.407.392 0 .392-.815.785-.815h.393c0 .408 0 .408-.393.408zm-9.815 0c-.393.814.392.814 0 1.222 0 .407.392.815 0 .815 0 0-.393-.408-.393-.815.393 0 .393-.408.393-.815-.393-.407-.393-.815-.785-.407.392.407.392.407.392.814v.408c0-.408-.392-.815-.785-.815 0 0-.393 0-.393-.407v-.408c.393 0 1.178 0 1.571.408zm6.282.407s-.393 0-.786 0h-.392s.392 0 .785-.407c0 0 0 0 .393-.408zm9.029 0h-.392c-.393.407-.785.815-.785 1.63h.785v.815c-.785-.408-1.571-.408-1.963 0v-.408-.815c.392-.407.785 0 1.178 0 0 0 0 0 0-.407-.393-.815-1.571.407-1.178-.815.392 0 .392-.815 1.178-.407.392 0 .785 0 1.177.407zm-19.237 0v.407c0 .408-.785 0-.785.408.392.407.785.407.785.815.392.407-.393 1.222 0 1.63v1.222c-.785.407-.785.815-1.178 1.222-.393-.407 0-.815-.393-.815 0-.407.393 0 .786 0 .392-.407.392-.814.392-1.222-.392-.407-.785-.815-.785-1.222.393 0 .393.407.785 0v-.408s-.392.408-.392 0c-.393 0-.786 0-1.178 0 0-.407 0-.815.785-.815 0-.407-.393-.815-.393-.815-.392-.407-.785 0-.785.408-.393 0 0 .407 0 .815l.393-.408c0 .815-1.178.815-.786 1.63-.392 0-.392.408-.392 0-.785-.407.392-.815.392-1.63-.392-1.222 1.178-.815 1.571-1.629.393 0 .785.407 1.178.407zm3.141.815c0 .407.392.815.392 1.222-.392 0-.392 0-.392 0 0-.407 0-.815-.393-.815 0 0-.393 0-.785-.407v-.815c.392.407.785.407 1.178.815zm9.029-.815c-.392 0-.392.407-.392.407h.392c-.392 0 0 .408-.392 0 .392.408-.393-.407 0-.407zm6.282.407h-.392c.392 0 .392-.407.392-.407zm-4.318.815c-.786-.407-1.178 1.223-1.178.408 0-.408.392-.815.392-.815.393 0 .786 0 .786-.408zm6.281 1.223h-.392s-.393-.408-.786-.408c0 0 0-.407-.392-.407h.392c.393-.408 0-.815 0-.815 0 .815 1.178.815 1.178 1.63zm-22.378-1.63s0 .407 0 0zm20.808 0c.392 0 0 .407 0 .407h-.393c0-.407.393-.407.393-.407zm-6.282 1.63c.393.815-.393 1.222 0 1.63v-.408l.393-.407c0 .407 0 .815-.393 1.222v.407c.393 0 .393 0 .785-.407 0 .815-.785 1.222-.392 1.63l.392-.408c.393.408-.392.815 0 1.223 0 0 .393-.408.393-.815.393.815 0 .815-.393 1.222 0 .815 0 1.222.393 1.63.393.408.393.408.393.815s-.393.407-.393.815v.407s-.393 0-.393-.407c0-.408.393-.815.393-1.222-.393 0-.393.407-.393.407 0-.407.393-1.223 0-1.63 0-.407 0-1.222-.392-1.63 0-.407-.786-.815-.393-1.63-.393-.407-.393-.814-.393-1.222 0-.815.393-1.63.393-2.445zm-7.067-.408c0-.407 0-.407 0-.815v1.223s0 .407-.392.407c0-.815-.786-.815-.786-1.222.393-.408.786-.408.786-.408.392 0 0 .408.392.815zm10.993-.815c-.393.408 0 1.223-.785 1.223-.393 0-.393.407-.785.407-.393 0 0-.407 0-.815.392 0 .785.408 1.177 0 0-.407 0-.815.393-.815zm-7.459.408c-.393 0-.393.407-.393.407h-.392s0 0 .392.408c0 0 .393-.408.393-.815.392.407 0 .407 0 .407-.393.408-.785.408-1.178 0-.393 0-.393 0-.393-.407h.786c0-.408.392 0 .785 0zm4.711.815c-.393 0-.393-.408-.393-.408 0-.407.393-.407.786-.407 0 0 .392.815-.393.815zm-10.208 0s0 .407-.392.407c-.393 0-.393-.407-.393-.407-.393 0-.393 0-.785 0l.392-.815c.393 0 .393 1.222 1.178.815zm5.104.407c.393-.407.785-.815 1.178-.815 0 .408.393.815 0 1.223-.393 0-.785 0-1.178 0h.393c-.393-.408-.785 0-1.178 0s-.786.407-1.178-.408l.392-1.222c.393.407.786 1.222 1.571 1.222zm-4.319-.407c-.392.407 0 .407-.392.815 0-.408-.393-.815-.393-1.223.393 0 .393.408.785.408zm3.927-.408c0 .408-.393 0-.393 0zm-10.208.815s0 .408-.393.408c0 0 0 0-.393 0h-.392c.392-.408.785-.408 1.178-.815h.392s0 0-.392.407zm11.385 0s.393-.407.393-.407 0 .407-.393.407zm2.356 0c.392.815-.785.815-.785 1.223h-.393c.393-.408-.392-.408 0-.815 0-.408.393-.408.393-.408.392.408 0 .408.392.815 0-.407.393-.407 0-.407v-.408-.407s.393 0 .393.407zm8.245 0v.408c-.393-.408-.393-.815-.786-.815.393 0 .393 0 .786.407zm-18.846 0c0 .408.786.815 0 1.63.393-.407 0-.815 0-1.222-.392 0-.785-.408-.785-.408v-.407s.393.407.785.407zm15.705.815s0 .408.392.815l.786-.407c-.393.407.392 1.222 0 1.222-.786 0-.786-1.222-1.178-.815-.393-.407 0-1.222 0-1.63 0 0 .392 0 .392-.407.393.407 0 .815-.392 1.222zm-13.741 0c0-.407.392 0 .392 0s0 .408-.392.408c-.393 0-.393-.408-.393-.408-.393 0-.785-.407-.785-.407v.407c0 .408.785.408 1.178.815v.407s0 .408-.393.408c0-.815-1.178-.408-.785-1.63 0 0 0 0-.393-.407l.393-.815c.392.815.785.815 1.178 1.222zm14.526-.407c0-.408 0-.408.393-.815 0 .407 0 .407-.393.815zm-16.097-.408h-.393zm3.926.408h.393c0 .407 0 0 .392 0 0 .407-.392.407-.392.407l-.393.815c-.392-.407 0-1.222-.785-1.222 0-.408 0-.408 0-.408l.393.408c.392 0 .392-.408.392-.408zm8.638 0c-.393 0-.393.407-.786.815-.392-.408.393-.815.393-1.223h.393zm1.962.407c-.392.408-1.177.408-.785.815-.392 0-.392-.407 0-.407 0-.408.393-.408.393-.815l.392-.408zm3.141-.407-.392-.408h.392zm-20.022.407h-.393c.393 0-.393-.407 0-.815 0 .408.393.408.393.815zm-1.571-.407h-.393v-.408c.393 0 .393 0 .393.408zm.785 0h-.392l.392-.408zm5.497.407c.392 0 .392 0 .392-.407v.407c-.392.408.393.815-.392 1.222.392.815-.393.815-.393 1.63-.392.408 0 .815-.392 1.223.392.814-.393 1.222 0 1.63v.407c0-.407-.393-1.223-.393-1.63v-.407s.393.407.393 0c0-.408-.393-.815 0-1.223v.408c.392-.408 0-.815 0-1.223v-.407c.392 0 .392.407.392.407 0-.407 0-.815 0-1.222s0 .407.393.407c.392-.407-.393-.814-.393-1.629.393 0 .393.407.393.407zm15.311 0s0 0-.392 0l.392-.407zm-20.808-.407v.407zm19.238.407h.393c0 .408.392 0 .392.408 0 .407.393.407 0 .407 0 0 0-.407-.392-.407-.393 0-.786 0-.786-.408zm-16.097 1.222c0 .408 0 .815-.393.815.393-.815-.785-1.222-.785-2.037.785.408.393 1.222 1.178 1.222zm8.638 0s-.393.408-.393.408c0-.408 0-.815 0-1.222v.407l.393-.815c.392.408 0 .815 0 1.222zm4.318-1.222c.393.815-.785.408-.785 1.222 0-.407.393-.407.393-.814 0 0 .392-.408.392-.408zm-16.489.408h.392v.407s-.392-.407-.392 0c0-.407-.393-.407 0-.815zm8.244 0c.393 0 .393 0 .785.407v-.407c0 .407-.392.814 0 1.222-.392 0-.785-.408-.785-.408 0-.407-.785-.407-.392-.814zm3.141.407v.407c-.392.408-.392.408-.785.408v-.408s0 0 0-.407c0-.407 0 0 .393-.407 0 .407 0 .407.392.407zm-1.57 0h.393c-.393 0-.393 0-.393.407 0 0 .393 0 .393.408-.393 0-.786 0-.786-.408 0 0-.393-.407 0-.407zm-2.748.407v-.407zm10.992.815h.393c.393 0 0 .408 0 .815h.393c-.393 0-.393 0-.786-.407.393 0 .393-.408 0-.408-.392.408-.392 0-.392 0 0-.407 0-1.222.392-1.222.393.407-.785 1.222 0 1.222zm-13.348.408s-.393.407-.393 0v-.408c-.392-.407-.785-.815-.785-1.222h.393c.392.407.785.815.785 1.63zm9.03-.815v-.408s.392 0 0 .408zm3.141 0c-.393 0-.785 0-.785.407.392 0 .785 0 1.177-.407.393.815-.785.815-.785 1.63h.393c0-.408.392-.408.785-.815 0 .407.392.407 0 .407 0 .408-.393.815-.393 1.223h.393c.392 0 0-.815.785-.815 0 .815-1.178.815-.393 1.629.393 0 .393-.407.393-.407l.393-.815c.392.408-.786 1.222 0 1.63l.392-.815c.393.815-.785 1.223 0 1.63-.392 0-.392-.407-.785-.815s-.785-.815-1.178-1.222c0-.408-.785-.408-.785-1.223 0-.407-.785-.815-.392-1.222 0-.408.785-.815.785 0zm-14.134 0s-.393 0-.393.407c0 .408 1.571.815.393 1.223-.393.407.392.407.392 1.222-.392 0-.392 0-.785 0 0-.407.393-.407 0-.815 0 0-.392-.407-.392-.815.392 0 .392.408.785.408v-.408c-.393-.407-.785-.815-.393-1.222-.392-.408.393 0 .393 0zm10.208.407s-.393-.407 0-.407c0 0 .392.407 0 .407zm-5.497.408s0 0-.392 0c-.393-.408.392-.408.392-.815.393 0 .393.407 0 .815zm-.392-.815-.393.407v-.407zm-.786 0v.815zm7.852.815s.393.407 0 .407c0-.407-.392-.407-.392-.815.392 0 .392 0 .392.408zm-5.104-.408c-.392.408-.785.815-.785 1.223-.392 0-.392-.408-.392-.408.392-.407.392-1.222.785-.815zm3.927.815v.408c0-.815-1.178-.408-1.178-1.223.393 0 .393.815 1.178.815zm-1.178.408c.393 0 .393.407 0 .407 0-.815-1.178-.815-1.178-1.63 0 .408.393 0 .393 0 .392.408.785.815.785 1.223zm-7.46-.408c.393.408.393.408.393.815-.393 0-.785 0-.785.408 0 0 .392.407.392.814 0 0-.392 0-.785 0 .393.408.393.408.393.816 0 .407-.393.407-.393.407 0 .407.393.407.393.815-.393.407-.393.407-.393.407 0-.407 0-.407 0-.815-.393 0-.785 0-.785-.407s0-.407 0-.407l.785.407s.393-.407 0-.815c0 0-.393 0-.393-.408v-.407c.393 0 .393.407.786 0 0-.407-.393-.407-.786-.815.393 0 0-.407.393-.407 0 0 0 .407.393.407.392-.407-1.178-1.222 0-1.63 0 .408 0 .815.392.815zm5.497-.815c.393.408 0 .815 0 .815-.393.408-.786.408-.786.408h-.392c.392-.408.785-1.223 1.178-1.223zm3.926.815s0 .408-.393.408c.393-.408-.785-.815 0-1.223zm-7.067 0c.393.408-.393.408-.393.408 0-.408 0-.408.393-.815zm-.785 0c.392 0 0 .408 0 .408-.393 0 0-.408 0-.408zm5.889 1.63c0 .407 0 .407-.393.407 0-.407-.392-.814-.392-.814-.393 0-.785-.408-.785-.815 0 0 .392 0 .392-.408.393.408.785.815 1.178 1.63zm-4.319-1.222c0 .407-.392.815-.392 1.222 0-.407 0-.407 0-.815 0-.407.392-.407.392-.815zm7.067 0s0 .815-.393.815c0-.408.393-.408.393-.815-.393 0-.393.407-.785.407 0 0 .392.408 0 .408 0 0-.785-.408-.393-.815l.393.407c0-.407.392-.815.785-.407zm-1.178 1.222h-.392c0-.407-.785-.407-.393-1.222 0 .407.785.815.785 1.222zm-3.14-.815c0 .815-1.179.815-.786 1.63h-.785c0-.408 0-.408 0-.815.785 0 .392-1.222 1.178-.815zm5.889 1.222.392-.814c.785.814-.392 1.63.393 2.037 0-.407.392-.815.392-1.223.785.816-.785 1.223 0 2.038-.392 0-.392-.815-.785-.815-.392-.815 0-1.223-.785-1.223 0-.407 0-.814 0-.814l.393-.408c.392.408-.393.815 0 1.222zm-13.742.408c.393 0 0 .408 0 .408 0-.816-1.177-1.223-.785-2.038.785.408.393 1.222.785 1.63zm3.534-1.222s0 .407-.393 0c0 0 .393 0 .393-.408zm2.355-.408c0 .408-.392.815 0 1.222-.392 0-.392 0-.392-.407s0-.407 0-.815zm-1.57.815-.393.407c-.392-.407 0-.814.393-1.222zm6.282 1.223c-.393 0 0-.408-.393-.816-.392 0 0-.407-.392-.814h.392c-.392.814.785.814.393 1.63zm-1.963-.816c.392.408 1.57.816.392 1.223 0-.407 0-.815-.392-.815 0 0-.393-.408-.785-.408v-.407c.392 0 .785 0 .785.407zm3.926-.407c0 .407-.393.407-.393.407v-.407c0-.407.393-.407.393 0zm-9.03.815c-.393-.408-.393-.408 0-.815zm1.57-.815c0 .815-.392.815 0 1.223-.392 0-.392 0-.392 0 0-.408.392-.816.392-1.223zm3.141 1.223c.393 0 .785 0 .785.407s.393.407.393.407c.393.408 0 .408 0 .815h-.393c.393-.407 0-.815-.392-.815-.785-.407-.785-.814-1.178-1.222 0 .815-.786.815-.393 1.222-.393.408-.393 0-.393 0-.392-.814.786-.814.393-1.63.393 0 .393 0 .786-.407-.393.407 0 .815.392 1.223zm3.533-.408v.408c0-.408-1.177-.816-.392-.816zm-5.496.408c-.393.407-.785.407-.785.814h.392-.392s0-.407 0-.814l.392-.816s.393.408.393.816zm-6.674.407v.407c0-.814-.785-.814-.393-1.63.393 0 .393.816.393 1.223zm4.318 0c-.392-.407 0-.815.393-.815 0 0-.393.408-.393.815zm8.638-.815v.408c-.393 0-.786-.408-.393-.408.393-.408.393 0 .393 0zm-10.208.815v.407c.393-.814-.393-.814 0-1.222 0 .408.393.408 0 .815zm8.245.815-.393.407c.393 0 .393.408.393.408v.407c0-.407-.393-.815-.393-.815-.392 0 0-.815-.392-.815.392 0 .392.408.392.408h.393c0-.815-.785-.815-.785-1.63.392.408 1.177.815.785 1.63zm-7.067-1.222c-.393 0-.393 0-.393 0s0-.408.393 0zm12.17 1.629c.393-.407.393-.815.786-1.222v.815c-.393 0-.393.407-.393.815h.393c-.393.407-.786 0-1.178-.408 0 0-.393-.815 0-1.222l.392-.407c.393.407-.392 1.222 0 1.629zm-3.926-.407c0-.408-1.177-.815-.785-1.222.393.407.785.814.785 1.222zm-9.815-.408h-.392v-.407c.392 0 .392 0 .392.407zm2.356-.407c.393.407 0 .407 0 .815 0 0 0 .407-.393.407 0-.407 0-.815.393-1.222zm.785 0c0 .407-.392.815 0 1.222h-.392c0-.407.392-.815.392-1.222zm-5.889.407c.393 0 .393.408.393.815-.393 0 0-.407-.393-.407 0-.408-.392-.408 0-.815zm4.319.815c-.393-.407-.393-.815-.393-1.222.393.407.393.815.393 1.222zm8.637-.815v.408-.815zm.785 1.63c0 .815-.785.815-.785 1.63.785 0 .785.815 1.178.815.785 1.63.393 3.667.393 5.297 0 0 0 .407.392.407 0-1.63.393-3.26 0-5.297.393 0 .393.408.393.408.392 1.629-.393 3.259 0 4.482.392.815 0 1.63.392 2.037 0 0 0 0 0-.407-.392.407 0 .814.393.814-.785 0-.785-1.222-1.178-1.629 0 .815 0 1.629.785 2.037.393 0 0 .407.393.407 0 .408.785.408.392.815v.408c0-.408 0-.408 0-.408-.392 0-.392 0-.392 0 0-.407 0-.815-.393-.815 0 .408 0 .815-.392.815-.393-.407-.393-.407-.785-.815-.393-1.222-.393-2.037-.786-2.852-1.963-1.63 0-4.482-.785-6.519 0-.408 0-.815 0-1.222.785 0 .393-.815.785-1.223 0-.407-.392-.815 0-.815-.392.408.393 1.223 0 1.63zm-6.674-.815s-.785.408-.785.815c0-.407 0-.407 0-.815.392-.407.392-.815.785-.815zm-3.533-.815v.815c-.393-.407 0-.815 0-.815 0-.407 0 0 0 0zm11.385.815s-.392.408 0 .815c-.392 0-.392-.407-.392-.407 0-.408 0-.815.392-1.223.393 0 .393.408 0 .815zm-5.104.408s.786 0 .393.407v.408c0-.408-.785-.815-1.178-1.223 0 0 0-.407-.392-.815.392.408 1.177.408 1.177 1.223zm-1.177-1.223c.392.815-1.179.815-.786 1.63 0 0-.393-.407-.393-.407s0-.408.393-.408c0 0 0 0 .393-.407 0 0 0-.408.393-.408zm-6.675 1.223c0 .407-.393.407-.393.407-.392 0 0-.407 0-.407-.392-.408-.785-.408-.392-.815 0 0 .392.407.785.815zm1.571-.408c-.393 0 0 .408-.393.408 0-.408 0-.815-.393-.815.393 0 .786 0 .786.407zm9.029 0c-.392.408 0 .408-.392.408 0 0-.785-.408-.393-.815.393.407.393.407.785.407zm3.141.408c0 .407-.785.815-.392 1.222-.393-.407-.393-.815-.393-.815.393-.407.393-1.222.785-.407zm-9.815.815c-.392-.408 0-.815 0-1.223zm7.067-.815v.407c0-.407 0-.407 0-.815zm-9.03.407c-.392 0-.392-.407-.392-.815 0 .408.392.408.392.815zm1.571-.407c-.393.407-.393.407-.393.407s0-.407 0-.815c.393 0 .393.408.393.408zm-1.178.815c0-.408 0-.815 0-.815s.392.407 0 .815zm5.496-.408v.815h.393c0 .407 0 .815-.393.815 0-.408 0-.815-.392-.815-.393-.407 0-.815-.393-1.222-.392.407-1.178.815-.785 1.629 0-.407 0 0 0 0-.393-.407-.393-.407-.393-.814.393-.408.393-.815.786-.815.392 0 .785.407 1.177.407zm-6.674.408c-.393.407-.393.407-.393.407.393-.815-.785-.815-.392-1.222.392.407.785.407.785.815zm3.926-.815c.392.407-.785.815-.393 1.222.393 0 .393-.407.785-.407.393.814-.785.814-.392 1.629v-.407l.392.407c-.392 0-.785 0-.785 0-.392 0 0-.407 0-.815 0-.407-.785-.407-.392-.814.392-.408.392-.815.785-.815zm3.926.407c-.392.408.785.815 0 1.222 0-.407-.392-.814-.392-1.222 0-.407-.393-.407 0-.407 0 0 .392 0 .392.407zm5.496 0c-.392.408-.392.815-.392 1.222-.785-.407 0-1.222 0-1.629.392 0 .392.407.392.407zm-14.919.815c-.392 0-.392.407-.392 0-.393 0 0 0 0-.407-.393-.408-.785-.408-.393-.815 0 .407.785.407.785 1.222zm12.564-.815v.815.407s0-.407-.393-.407c.393-.407.393-.815.393-1.222 0 0 .393.407 0 .407zm-1.963.815s-.393 0-.393.407c-.392-.407-.392-.407-.392-.814l.392.407c.393 0-.392-.407 0-.815.393 0 .393.408.393.815zm-8.637.407s0 0-.393 0c0-.407.393-.814.393-.814zm9.029-.407v.407c-.392-.407 0-.814 0-.814s.393.407 0 .407zm-6.674-.407v.814c0-.407 0-.814 0-.814zm-.392 0c0 .407 0 .407-.393.814 0-.407 0-.407 0-.814zm-3.141.814v.408c-.393 0 0-.408-.393-.408.393 0 0-.407 0-.814.393.407.785.407.393.814zm1.963 0c.785.815 0 1.63.392 2.038.393-.408 0-1.223.393-1.223.393.815 0 1.63 0 2.445 0-.407 0-1.222-.393-.815 0 1.222.786 2.852 0 4.075 0 .407-.392.407-.392.815v-.408c-.393.815-.393 2.037-1.178 2.852 0 .408 0 .408.393.408 0 .407-.786 0-1.178.407l-.393.408v-1.63c.393 0 1.178.407 1.178 0 .393-.408.393-.815.393-.815-.393 0-.393.407-.393.407v-.814c-.393.407-.393.407-.393.814h-.392c.392-.407.392-.814.392-1.222h-.392c.392-1.63.785-3.667.392-5.297 0 .408 0 1.63-.392 2.445 0-1.223-.393-2.445 0-3.26 0 0 0 .408.392.815 0-.407-.392-1.63.393-1.222 0-.815.785-.815.785-1.63v-.407c.393.407 0 .814.393.814zm5.104.408s0 .407.392.407c-.392 0-.785 0-.785-.407 0-.408 0-.408 0-.815-.392.407-.785.815-.785 1.222-.393.408-.393 0-.393 0 0-.407 0-.407 0-.815.786.408.393-.407.786-.407.392.407 1.177.407.785.815zm-4.319-.408c-.393 0-.393 0-.393-.407s0 .407.393.407zm9.815.408h.393.392s-.785.815 0 .815c-.392.407-.392 0-.785-.408h.393c-.393 0-.785 0-.785 0-.393-.407 0-.815 0-.815l.392-.407c0 .407-.785.815 0 .815zm-1.178-.408h-.392v-.407c.392 0 .392 0 .392.407zm-10.6.408s-.393 0-.393.407c-.392-.407 0-.407 0-.815.393 0 0 .408.393.408zm-1.178 0v.407h-.393s0-.407 0-.815c.393 0 .393.408.393.408zm9.815 0c.785 2.445-1.177 4.889.393 7.334 0 .408 0 .815-.393 1.222.393.408.785 0 .785.408v.815c-.392-.408-.392-1.223-.785-1.223 0-.814-.392-1.629-.785-2.444v.407c0 .815.393 1.63 0 2.445 0 .407.393.815 0 1.222 0 0 0-.815-.392-.815v.815c-.393-.407 0-.815 0-1.222h.392c-.392-1.63 0-2.852 0-4.075-.392 0 0 .408-.392.815-.393.815 0 2.038-.393 3.26 0-.408 0-.408 0-.815-.393-1.222.393-2.445.393-3.667v-3.26-.407c.785 0 .785-1.63 1.177-.815zm2.356 0v.407s-.393-.407-.393-.407c0-.408.393-.408.393 0zm-3.141 0s-.392 0-.392.407c0-.407 0-.407 0-.407zm-2.355 1.222c-.393-.407 0-.815 0-.815.392 0 .392.408 0 .815zm-1.964-.407c.393.815 0 2.037 0 2.852.393.815.393 1.63.785 2.037v.408h-.392c0 .407.392 1.222 0 1.63v-.815c-.393.407 0 .815-.393.815 0 0 0-.408-.392-.408 0 .408 0 1.222-.393 1.63v1.222-.407c0-.408 0-.815 0-.815 0-.408.393-.408.393-.815s0-.407 0-.815c-.393.408-.393.815-.393.815s0 .407 0 0v-3.667c-.392-1.223-.392-2.852-.392-4.075.392 0 .785 0 1.177.408zm5.889.815c0 1.222 0 2.445-.392 3.667-.393-1.63.392-3.26.392-4.89.393.408 0 .815 0 1.223zm2.356-.815h-.392s.392-.408.392 0zm-7.067.407v.408c0 1.222 0 2.852-.393 3.667 0-1.222-.392-2.445-.392-3.667 0-.408 0-.815.392-.815zm1.963-.407h-.392zm.393.407c0 .815.393 2.445 0 3.26-.393-.815-.393-2.037-.393-2.852-.392-.408 0-.408.393-.408zm-.785 1.223c-.785 2.037 1.178 4.074 0 6.111 0 .815.392.815.392 1.63-.392 0-1.177 0-1.57-.407-.393-.408 0-.815-.393-1.223.393-1.222 0-2.444.393-3.667 0-.814 0-1.63 0-2.444-.393-.408.393-.408.393-.408.392 0 .785 0 .785.408zm-5.497 4.482c0-1.223.393-2.038.393-3.26v-1.63c.392 1.63 0 3.26-.393 4.89zm1.571-2.038c-.393 1.223.785 3.26-.393 3.667-.393-.407 0-.814 0-1.222 0-.815.393-1.63.393-2.852zm7.459 1.63v2.037c-.785 0-.393-.814-.393-1.629-.392-.408 0-.815 0-1.223.393 0 0 .408.393.815zm-8.245.815c-.392 0 0-.407 0-.815zm9.03.815c-.392 0-.392-.407-.392-.407v-.815c.392.407 0 .815.392 1.222zm-5.889-1.222v.815s-.393-.408-.393-.815zm-.393 2.037v.407s.393 0 .393.408v.407c0-.407 0-.407 0-.407h-.393c-.392 0-.392 0-.392 0v.407c0-.407 0-.407 0-.815 0 0 0-.407-.393-.407 0 0-.392.407-.392.407.392.408.392.408.392.408s0-.408-.392 0c-.393 0 0 .407 0 .407-.393-.407-.393-.815 0-1.222 0 0 0 0 0-.408.392 0 .392.408.392 0 0 0 .393-.407.393-.407.392 0-.393.815.392.815zm5.104-.408h-.392v-.407c.392 0 .392.407.392.407zm-8.244-.407c.392.407 0 .407 0 .407zm9.422.407v.408l-.392-.408zm-8.244 0c0 .408-.393.815-.393 1.223-.393 0-.393-.408-.393 0-.392 0 0 0-.392.407v-.407c.392-.408.785-.408.785-1.223zm8.244 1.223v.407c0-.407 0-.407 0-.407-.392 0 0 .815-.392.407 0-.815-.393-.815-.393-1.63.393.408.393 1.223.785 1.223zm3.926-.815c-.392.407 0 .407.393.815 0 0 .393 0 .393.407-.393 0-.393-.407-.393-.407s-.393.407-.393.407c-.392-.407-.392-1.222-.785-1.63.393 0 .393.408.785.408zm-16.489-.408c0 .815-.393 1.223-.393 1.63-.392 0-.392 0-.392-.407.392 0 .392-.408.392-1.223zm3.533.408c.393.407-.392.407-.392.407-.393 0 0 0 0 0s.392-.407.392-.407zm7.067 0s-.392.407 0 .407c0 0 .393 0 .393.408v.407c-.393-.407 0-.407-.393-.815v.408.407c-.392 0-.392-.407-.392-.815 0 0 0-.407.392-.407zm-10.208 0c.393.407-.392.815 0 1.63-.392 0-.392 0-.392 0v-.408h-.393v-.407h.393c.392 0 0-.815.392-.815zm15.312 0c.393.407 0 .815.393.815-.393 0-1.178-.408-1.178-.815zm-2.355.815s0 .407-.393.407c0 0 0-.407 0-.815 0 0 .393.408.393.408zm-1.571 0s0 0-.393 0l.393-.408zm-7.459-.408c-.393.408.392 1.223-.393.815 0-.407 0-.815.393-.815zm-3.534.408c0 .407-.393.407 0 .407h-.393v-.407zm-1.178.815c-.392 0-.392 0-.392 0s0 0 0-.408c.392.408.392.408.392.408zm16.49 0h-.393v-.408h.393zm.392-.408v.408zm-5.496 2.038c.785.814.785 2.037.785 2.852-.393 1.63-1.57 2.444-2.748 2.852-1.57.407-3.141-.408-3.926-1.63-.393-1.222-.393-2.852-.393-3.667.785-1.223 1.57-2.037 2.749-2.037 1.177-.408 2.748 0 3.533 1.63zm-6.282-1.63s-.392.407-.392.407h-.393c0-.407.393-.407.785-.407zm.393 0c-.393 0-.393.407-.393.407 0-.407 0-.407.393-.407zm.785 0c-.393 0-.393.814-.785.407 0 0 .392-.407.392-.407zm5.496.407c-.392 0-.392-.407-.392-.407s.392 0 .392.407zm.786 0c-.393.407-.393-.407-.786-.407.393 0 .786 0 .786.407zm-8.638-.407s.393.407 0 .407c0 .407-.392 0-.392 0s.392-.407.392-.407zm7.46.407c-.393.407-.393-.407-.785-.407.392 0 .392 0 .785.407zm1.57 0 .393-.407v.407h-.393l-.392-.407c.392 0 .392 0 .392.407zm1.178 0c-.392.407-.392-.407-.785-.407.393 0 .785 0 .785.407zm.393 0c-.393.407 0-.407-.393-.407 0 0 .393 0 .393.407zm-11.386-.407c.393 0 0 .407 0 .407 0 .407 0 0-.392.407 0-.407 0-.407 0-.407.392-.407.392-.407.392-.407zm12.171.407c0 .407 0 0-.393 0v-.407s.393.407.393.407zm.785 0c-.393.407-.393 0-.785-.407h.392c0 .407.393.407.393.407zm-14.134-.407c0 .407 0 .407-.392.814 0-.407 0-.814.392-.814zm.786 0c0 .407-.393.407-.393.814-.393-.407 0-.814.393-.814zm-1.571 0c.393.407 0 .407 0 .814-.393-.407 0-.407 0-.814zm15.312.407v.407l-.393-.814c.393 0 .393.407.393.407zm-5.104 1.63c.785.815.392 2.445 0 3.26-.785 1.222-2.356 1.629-3.533 1.629-.393 0-.786-.407-1.571-.814-.785-.815-1.178-2.038-.785-3.668 0-.814 1.177-1.63 1.963-2.037 1.57-.407 3.141 0 3.926 1.63zm5.496-1.63v.407zm-16.882.407c0-.407 0-.407 0-.407zm17.668-.407v.407c-.393 0-.393-.407-.393-.407zm-8.638 0-.392 2.445v-2.445c0 .407.392 0 .392 0zm-9.422.407v-.407zm8.637 2.038c0-.815-.392-1.63-.392-2.445h.392zm1.571-2.038c-.393.816-.786 1.223-.786 2.038 0-.815 0-1.63.393-2.445 0 .407.393.407.393.407zm-10.601 0c-.392 0 0 0 0 0zm8.245 0c.393.408.393 1.223.785 2.038-.392-.815-.785-1.63-1.178-2.038zm5.889.816c.393 0 .393-.408.393-.408v-.408c.392 0 0 .408.392.408.393.408 0 .408.393.815-.393.407-.393.407-.785.815-.393 0 0 .407-.393.407 0 0-.393.408-.393 0 0 0 .393 0 .393-.407-.393 0-.393.407-.785 0h.392c0-.408-.392-.815 0-1.222.393-.408-.392-.816 0-.816.393 0 0 .408.393.816zm-.785-.816c.392.408 0 .816 0 1.63-.393 0-.393-.814-.786-1.222l-.392-.408zm-10.993.408c-.393.408 0 .815 0 .815.392.407.392.815.392 1.63.393.407 1.178-.408 1.571 0 .392 0 .785.407.785 0 0-1.223.393-2.037.785-2.445 0 .408-.392.408 0 .815-.392.407 0 1.222-.392 1.63 0 .407-.786 0-1.178.407.392.408.392.815.392 1.223.393 0 0 0 0 .407-.392 0-1.177-.407-1.57-.815 0 .815-.785 0-1.178 0 0 0 0 0 0-.407 0 .407 0 .815-.393 1.222-.392 0-.785 0-.785.408-.392.407.393.407.785.814-.392.408-.785 0-.785 0-.392-.407-.392-.814-.392-1.222.392-.407 1.177-.407.785-.815-.393-.407.392-.815 0-1.222 0-.815 0-1.223 0-1.63h-.393c.393 0 0 .815 0 .815-.392 0-.392-.408 0-.408 0-.814 0-1.63.785-1.63.393 0 .393.408.786.408zm3.533-.408c0 .408-.392.816-.785 1.223s0 .815-.393 1.63c-.392-.815-1.57.407-1.57-.815-.393-.815-.785-1.222-.785-2.038zm2.749 2.038c-.393-.408-.786-1.222-1.571-1.63.392 0 .392-.408.392-.408.393.816.786 1.223 1.179 2.038zm2.748-1.63c-.785.408-1.178.815-1.571 1.63.393-.815.786-1.222 1.178-2.038 0 .408.393.408.393.408zm3.141-.408s0 .408-.393.408v-.408zm1.962.408h.393c0 .408 0 0-.393.408h.393c.393.814.393 1.222.393 1.629h-.786v-.407s0-.408-.392-.408c0-.407-.785 0-.785-.814 0-.408-.393-.408 0-.408l-.393-.408c.785 0 1.57 0 1.57.408zm2.749 1.63c0 1.222 0 2.037-.393 3.26v.407c0-1.63 0-3.667-.392-5.297v-.408c.392.816.392 1.63.785 2.038zm-1.178 0c.393-.815 0-1.222 0-2.038.785 1.63.785 4.075.393 5.705 0-.407 0-1.222 0-1.63-.393.408-.393 1.223-.393 1.63 0-.815.393-2.037-.785-2.852v-2.037h.392v1.222c.393-.815 0-1.222 0-2.038.393.408.393 1.223.393 2.038zm-9.815 0c-.393-.408-.786-.815-1.571-.815l.393-.815zm3.533-1.222v.407c-.785 0-1.177.407-1.963.815l1.571-1.63c.392 0 0 .408.392.408zm-12.563 0c.785 1.222.785 3.259.393 4.889 0-1.63 0-3.26-.393-4.889zm1.178.407v-.407zm-.393 1.222.393-.407-.393-1.222s0 .407.393.407v1.222s.392 0 .392.408v.815c-1.177 0-.392 1.63-.785 2.444 0-2.037 0-3.667-.392-5.296.392.407.392 1.222.392 1.629zm14.527-1.629c0 .407 0 .407-.393.407s0-.407.393-.407zm5.103 2.444v1.223l-.392-3.26c.392.407.392 1.222.392 2.037zm-11.385-.815c-.393 0-1.178-.407-1.963-.407 0-.408.392-.408.392-.815.393.407 1.178.815 1.571 1.222zm3.926-.407c-.785 0-1.57 0-1.963.407.393-.407 1.178-.815 1.57-1.222zm2.356-.815v.407c-.393 0-.393 0 0 0 0-.407 0-.407 0-.407zm1.57.407c0 .408-.393.815-.393 1.223.393.815-.392 1.222-.392 2.445-.393.407.392 1.222-.785.814.392 0 .392-.407.392-.407s0 0 0-.407l-.392-.815c.392-.408.392-.815.392-1.223-.392.408-.392.815-.392 1.223-.393-.408 0-.408 0-.815-.393.407-.393.407-.393.407-.393-.407.393-.407.393-.815 0 0 0-.407.392-.407-.392 0 0-.408-.392-.408 0-.407.785-.407 1.177-.815zm-7.852 1.223c-.786-.408-1.571 0-1.963 0 0-.408 0-.408 0-.815.785.407 1.177.407 1.963.815zm3.926-.815v.407c-.393 0-1.178 0-1.963.408h2.355s-.392.407-.392.407c-.393 0-1.178-.407-1.963-.407 0 0 0 0 0-.408.785 0 1.57 0 1.963-.407zm-2.356.407c.393.408 0 .815-.392 1.223-.393 0-.785-.408-.785-.408 0-.407 0-.407 0-.815 0 0 .392-.407.392-.407.393 0 .785 0 .785.407zm-10.6 2.038c0-.815 0-1.63 0-2.445 0 .815.393 1.63 0 2.445zm10.6-1.63s-.392.407-.392.407c-.393 0-.393 0-.393-.407-.392 0 0-.408 0-.408.393-.407.393 0 .785.408zm10.208 0v-.408zm-6.674 0v-.408zm4.318.815c0 .815-.785 1.222-1.178 2.444h-.392c0-.814 1.178-1.222.785-2.037-.393.408-.785.408-1.178.408 0-.408.393-.815.393-1.223.392-.407.785-.407 1.178-.407 0 .407.392.407.392.815zm-3.533-.815h-.393zm-15.312.815c-.392 0 0-.408 0-.815zm9.423-.815c-.393.407-.786.407-1.178.407l-.785.408c0-.408 0-.408 0-.815.785.407 1.57 0 1.963 0zm5.104.407c0 .815 1.178 1.223.392 2.038 0 .407-.392.407-.392.814-.393.408-1.178 0-1.571.408 0-.408 0-.815.393-.815 0-.407.392-.815.785-.815 0-.815.393-1.222.393-2.037.392.407 0 .407 0 .407zm.785.408h-.393l.786-.815c0 .407-.393.407-.393.815zm.393 0 .392-.815zm-3.141 0v-.408l.392.408c0-.408.393 0 .393 0s-.393.407 0 .407c-.785-.407-1.178-.815-1.963-.815.393 0 .785 0 1.178.408zm2.748-.408h-.393zm-5.889 0c-.393.408-1.178.815-1.571 1.223 0-.408 0-.815-.392-.815.392 0 1.177 0 1.57-.408zm3.533 1.223v.407c-.392-.407-1.177-1.222-1.57-1.63.393.408 1.178.815 1.57 1.223zm-6.281-1.223v.408h.392s-.392 0-.392.407c.392 0 .392.408.392.408h-.392.392c-.392-.408-.392 0-.392 0l-.393-.408c0-.407 0-.407 0-.407 0-.408.393-.408.393-.408zm3.141.408c-.786.407-1.179.815-1.571 1.222 0 0-.393 0-.393-.407.393-.408 1.178-.815 1.964-1.223zm1.57.407c.393 0 .785.815 1.178.815.392.408-.393 0-.393.408-.392-.408-.785-1.223-1.178-1.63v-.408c.393.408.393.408.393.815zm-1.57-.407c-.393.407-.393 1.222-.786 2.037 0-.407-.393-.407-.393-.407.393-.815.786-1.223 1.179-1.63zm1.57.815c.393.407.393.815.785.815-.392.407-.392.407-.392.407h-.393c0-.815 0-1.222-.393-2.037.393 0 0 .815.393.815zm-1.57 1.222v.407c-.393-.407-.393-.407-.786-.407.393-.815.786-1.222 1.178-2.037 0 .815-.392 1.222-.392 2.037zm.785.407c-.393 0-.393-.407-.785-.407.392-.407.392-1.222.392-2.037 0 .815.393 1.63.393 2.444zm.392-1.629h-.392c.392.407.392.815.785 1.222 0 0-.393 0-.785.407 0-.814.392-1.629 0-2.444 0 0 0 .407.392.815zm-9.03-.815c0 .407 0 .407-.392.407s0-.407.392-.407zm-.392.815v1.629c-.393-.407 0-.814 0-1.222-.393-.407 0-.407 0-.407zm2.748.407h.393s.392.408.785.408c.392 0 .392 0 .785.407 0 .815-1.178.407-1.57.815h-1.571c-.393-.408-.785-.815-.785-1.222.392 0 .785-1.223 1.178-.408zm14.526-.407c.393.407 0 .407 0 .815 0 0 0-.408 0-.815zm-11.778.815v.814s0 .408 0 0c0-.407-.392-.814-.785-1.222 0-.407.393 0 .393 0 .392 0 .392.408.392.408zm8.638-.408c0 .408-.393.815-.393 1.222 0 0-.393 0-.393.408 0-.408 0-.408 0-.408 0-.407.393-.814.393-1.222 0 0 0-.407.393 0zm1.57.815c-.393 0 0 .407-.393.407 0 0 0 0 0-.407 0 0-.392 0 0-.407v-.408h.785zm-9.815-.407c-.393 0 0 .407-.393.407 0-.407 0-.407 0-.815 0 0 0 .408.393.408zm11.385.814c-.392 0-.392 0-.392 0 .392-.407-.393-.814.392-1.222zm-12.17-.407v.407h-.393c.393-.407 0-.814-.393-1.222.393.408.786.408.786.815zm11.385.407s0-.407 0-.814c.393.407 0 .407 0 .814zm-10.208 0h-.392s0 0 0-.407h.392zm11.386 0v.408s0 0 0-.408zm-.393.408v-.408zm-.392 0c0-.408 0-.408 0 0zm-16.097 0v.407c-.393 0-.393-.407-.393-.407s.393-.408.393 0zm5.104 0s0 .407-.393.407c0-.407 0-.407.393-.407zm-4.712.407c-.392-.407 0-.407 0-.407zm.393-.407c.393 0 0 .407 0 .407zm.393 0v.407c0-.407 0-.815 0-.407zm.785 0v.407c-.393 0-.393 0-.393 0 0-.407 0-.407.393-.407zm.393 0c.392 0 0 .407 0 .407 0-.407 0-.407 0-.407zm.785.407c-.393 0-.393 0-.393 0 0-.407 0-.407 0-.407h.393zm.392-.407v.407h-.392c0-.407 0-.407.392-.407zm.393 0c.393 0 0 .407 0 .407 0-.407 0-.407 0-.407zm1.57.407s0 0-.392 0c0 0 .392-.407.392-.407.393 0 0 .407 0 .407zm8.245 0s-.785-.407-.392-.407c0 0 .392 0 .392.407zm.785 0h-.392l-.393-.407c.393 0 .393 0 .785.407zm.785 0c-.392 0-.392-.407-.392-.407s.392 0 .392.407zm0-.407v.407-.407s.393 0 0 0zm-10.6 0s0 .407-.392.407c0 0 0-.407.392-.407zm1.57 0v.407c-.392 0-.392 0-.392 0 0-.407.392-.407.392-.407zm6.282.407c0 .408-.392 0-.392-.407.392 0 .392.407.392.407zm.786 0c-.393.408-.393 0-.786-.407.393 0 .393 0 .786.407zm1.57 0c-.393 0-.393-.407-.393-.407s0 0 .393.407zm-4.711 0c-.393.408-.393 0-.393-.407 0 0 .393 0 .393.407zm1.177 0s-.392.408-.392 0v-.407c.392 0 .392.407.392.407zm.786 0c-.393.408-.393 0-.786-.407.393 0 .393 0 .786.407zm-5.497 0s0 .408 0 0c-.393 0 0 0 0 0 0-.407 0 0 0 0zm3.926 0s0 0 0-.407zm-.785 0s0 0-.392 0c0 0 0 0 0-.407 0 0 .392.407.392.407zm-2.355 0s-.393.408-.393 0zm1.963 0c-.393 0-.393.408-.393 0 .393-.407 0 0 .393 0zm-.786 0s0 .408-.392 0zm-.392 0c-.393 0 0 .408-.393 0zm-4.712.408c0-.408.393 0 .393 0 0 .407-.393 0-.785 0 0 0 0 0-.393 0zm10.208 0c-.392 0-.392 0-.392 0zm.785 0s0 0-.392 0zm-11.778 0h-.392zm1.963 0s0 .407-.392.407v-.407zm0 0c.393 0 0 .407 0 .407zm.785.407h-.392v-.407h.392zm.785 0h-.392c-.393-.407 0-.407 0-.407s.392 0 .392.407zm6.282-.407v.407s0-.407-.392-.407zm.786 0s0 0-.393 0zm-6.675 0v.407h-.393v-.407zm.786 0c0 .407 0 .407-.393.407 0 0 0 0 0-.407zm.392.407s0 0-.392 0c0-.407.392-.407.392 0zm.785-.407c0 .407-.392.407-.392.407 0-.407.392-.407.392-.407zm.786 0c0 .407-.393.407-.393.407h-.393v-.407zm.392 0v.407h-.392c0-.407.392-.407.392-.407zm.785 0c.393.407 0 .407-.392.407v-.407zm.785 0c0 .407 0 .407-.392.407v-.407zm.786 0v.407h-.393v-.407zm.785.407v.407s0 0-.393 0c0-.407 0-.407.393-.407zm-8.637.407s0 0-.393 0v-.407c.393 0 0 .407.393.407zm8.244-.407c0 .407-.392.407-.392.407-.393-.407.392-.407.392-.407zm1.571 0c0 .407 0 .407-.393.407 0-.407 0-.407 0-.407zm.785.407h-.393v-.407c.393 0 .393 0 .393.407zm-12.171.408c-.392-.408-.392-.408-.392-.815h.392zm.785-.408h-.392v-.407c.392 0 .392.407.392.407zm1.178 0s-.392-.407 0-.407zm.393 0c-.393.408-.393 0-.393 0 0-.407.393-.407.393 0zm.785-.407v.407c-.393.408-.393 0-.393 0v-.407zm5.889.407h-.393v-.407h.393zm-5.104 0h-.393v-.407s.393 0 .393.407zm.786-.407c0 .407 0 .407-.393.407-.393-.407 0-.407.393-.407zm.392.407c-.392 0-.392 0-.392-.407.392 0 .392 0 .392.407zm.785 0s0 0-.392 0c0-.407 0-.407.392 0zm.393 0h-.393v-.407c.393 0 .393 0 .393.407zm.785 0c-.392 0-.392 0-.392 0 0-.407.392-.407.392 0zm.393 0v-.407zm.785 0h-.393v-.407c.393 0 .393 0 .393.407zm-9.03 0c-.393 0-.393 0-.393-.407.393 0 .393.407.393.407z" fill="#3737c8"/></g></svg>