<svg width="309" height="309" viewBox="0 0 309 309" fill="none" xmlns="http://www.w3.org/2000/svg">
<g clip-path="url(#clip0_1_2)">
<path d="M154.5 307C238.723 307 307 238.723 307 154.5C307 70.2766 238.723 2 154.5 2C70.2766 2 2 70.2766 2 154.5C2 238.723 70.2766 307 154.5 307Z" fill="#073573" stroke="#CBA96D" stroke-width="3"/>
<path d="M19 162C21.2091 162 23 160.209 23 158C23 155.791 21.2091 154 19 154C16.7909 154 15 155.791 15 158C15 160.209 16.7909 162 19 162Z" fill="#CBA96D"/>
<path d="M289 162C291.209 162 293 160.209 293 158C293 155.791 291.209 154 289 154C286.791 154 285 155.791 285 158C285 160.209 286.791 162 289 162Z" fill="#CBA96D"/>
<path d="M154 279.5C221.103 279.5 275.5 225.103 275.5 158C275.5 90.8974 221.103 36.5 154 36.5C86.8974 36.5 32.5 90.8974 32.5 158C32.5 225.103 86.8974 279.5 154 279.5Z" fill="#073573" stroke="#CBA96D" stroke-width="3"/>
<path d="M154.755 64.0016C144.261 64.1368 135.866 72.7521 136.002 83.2437C136.137 93.7371 144.752 102.134 155.244 101.998C165.737 101.862 174.134 93.2468 173.998 82.7544C173.863 72.2632 165.247 63.866 154.755 64.0016ZM171.589 76.7164C171.08 76.9346 170.844 77.6899 171.065 78.4773C171.284 79.2595 171.878 79.7799 172.424 79.7061C172.46 79.8876 172.487 80.0722 172.516 80.2563C171.582 80.2308 168.774 80.5311 165.469 81.0253C162.466 81.4745 159.903 81.9546 158.795 82.262C158.751 82.0313 158.685 81.8097 158.602 81.5955C159.704 81.2691 162.133 80.3204 164.919 79.1111C167.995 77.7768 170.541 76.5425 171.312 76.0302C171.409 76.2563 171.502 76.4846 171.589 76.7164ZM169.392 72.6409C168.962 72.9858 168.93 73.7729 169.345 74.4729C169.761 75.1728 170.471 75.5218 170.979 75.3059C171.062 75.4768 171.139 75.6499 171.217 75.8243C170.314 76.0367 167.674 77.0535 164.603 78.3882C161.817 79.5978 159.464 80.7245 158.475 81.3066C158.373 81.0968 158.253 80.8985 158.116 80.7117C159.096 80.1119 161.199 78.5683 163.576 76.6812C166.18 74.616 168.309 72.7774 168.941 72.0698C169.091 72.2602 169.251 72.4443 169.392 72.6409ZM166.221 69.2679C165.892 69.7122 166.068 70.4812 166.65 71.0491C167.232 71.6176 168.007 71.7717 168.442 71.4324C168.567 71.5782 168.678 71.7355 168.799 71.8847C167.966 72.3397 165.691 73.9963 163.086 76.0632C160.708 77.9505 158.728 79.646 157.922 80.4648C157.769 80.2895 157.603 80.1269 157.424 79.9825C158.216 79.146 159.846 77.1157 161.654 74.68C163.636 72.0115 165.218 69.6853 165.646 68.8382C165.838 68.9826 166.035 69.1165 166.221 69.2679ZM162.283 66.8282C162.08 67.3427 162.449 68.0432 163.159 68.4406C163.868 68.8382 164.655 68.7878 164.988 68.3489C165.15 68.4584 165.3 68.5829 165.458 68.6987C164.77 69.3528 163.001 71.5412 161.02 74.2101C159.21 76.6472 157.735 78.7971 157.167 79.7961C156.976 79.6667 156.772 79.5555 156.559 79.4609C157.109 78.4517 158.16 76.0655 159.279 73.2428C160.515 70.1261 161.446 67.454 161.629 66.5482C161.85 66.6383 162.068 66.7306 162.283 66.8282ZM157.849 65.4966C157.788 66.0456 158.322 66.6255 159.112 66.8255C159.904 67.0269 160.653 66.7703 160.859 66.2553C161.048 66.3207 161.233 66.3936 161.419 66.467C160.931 67.2536 159.778 69.8386 158.546 72.954C157.426 75.7775 156.555 78.2358 156.266 79.3466C156.049 79.2728 155.823 79.2158 155.592 79.1805C155.862 78.064 156.263 75.4865 156.613 72.47C157.002 69.1474 157.212 66.33 157.156 65.3994C157.388 65.4281 157.619 65.4591 157.849 65.4966ZM153.221 65.3566C153.304 65.9025 153.971 66.323 154.785 66.3123C155.598 66.3017 156.253 65.8645 156.322 65.3177C156.526 65.3318 156.727 65.3539 156.928 65.3761C156.66 66.2695 156.216 69.0595 155.829 72.3786C155.476 75.395 155.272 77.9942 155.278 79.1425C155.17 79.1354 155.061 79.1297 154.95 79.131C154.826 79.1324 154.705 79.1412 154.585 79.1544C154.557 78.0044 154.277 75.4127 153.837 72.4098C153.354 69.0996 152.83 66.3247 152.536 65.4405C152.763 65.4087 152.991 65.3805 153.221 65.3566ZM148.727 66.406C148.946 66.9148 149.701 67.1523 150.489 66.9329C151.271 66.7134 151.79 66.1207 151.716 65.573C151.913 65.5368 152.112 65.5058 152.31 65.4745C152.281 66.4073 152.573 69.218 153.057 72.5251C153.495 75.5301 153.968 78.094 154.272 79.2022C154.042 79.2458 153.82 79.3108 153.606 79.3938C153.282 78.291 152.342 75.8597 151.14 73.0702C149.816 69.9896 148.589 67.4399 148.079 66.6692C148.294 66.5769 148.509 66.489 148.727 66.406ZM144.649 68.601C144.995 69.0312 145.782 69.063 146.483 68.6478C147.183 68.2317 147.532 67.5246 147.317 67.0146C147.5 66.9254 147.686 66.8423 147.873 66.7598C148.084 67.6634 149.092 70.3063 150.416 73.382C151.618 76.1715 152.737 78.5273 153.316 79.5192C153.107 79.6212 152.908 79.7405 152.721 79.8761C152.124 78.8934 150.588 76.7881 148.706 74.4044C146.649 71.7925 144.817 69.6588 144.111 69.0237C144.292 68.8837 144.465 68.7344 144.649 68.601ZM141.275 71.7699C141.719 72.0963 142.489 71.9236 143.058 71.3415C143.626 70.7593 143.78 69.9878 143.442 69.5493C143.598 69.4154 143.766 69.2961 143.927 69.1681C144.379 70.002 146.029 72.2818 148.088 74.8919C149.967 77.2751 151.656 79.2604 152.473 80.0713C152.298 80.2223 152.135 80.3888 151.99 80.5682C151.157 79.7732 149.13 78.1364 146.699 76.3208C144.037 74.3306 141.716 72.742 140.872 72.3109C141.007 72.1312 141.133 71.9444 141.275 71.7699ZM138.833 75.7051C139.348 75.9069 140.047 75.5408 140.447 74.8302C140.844 74.1222 140.794 73.3369 140.355 73.0008C140.474 72.8276 140.606 72.6665 140.73 72.4982C141.383 73.1877 143.566 74.9639 146.228 76.9532C148.66 78.7702 150.804 80.2519 151.803 80.8234C151.672 81.0134 151.56 81.2174 151.466 81.4299C150.457 80.8764 148.074 79.8186 145.255 78.6911C142.144 77.4465 139.476 76.5058 138.569 76.319C138.655 76.1132 138.742 75.9073 138.833 75.7051ZM137.499 80.1389C138.047 80.1985 138.627 79.6646 138.828 78.8757C139.03 78.0856 138.775 77.337 138.259 77.1294C138.33 76.9276 138.407 76.7288 138.485 76.5301C139.272 77.0204 141.853 78.181 144.964 79.4243C147.784 80.5531 150.239 81.4307 151.351 81.7244C151.275 81.9408 151.217 82.1652 151.181 82.3971C150.065 82.1228 147.489 81.7152 144.475 81.3547C141.154 80.9568 138.338 80.7382 137.407 80.7899C137.435 80.5721 137.463 80.3544 137.499 80.1389ZM137.355 84.7662C137.9 84.6818 138.321 84.0153 138.311 83.2022C138.301 82.39 137.866 81.7359 137.317 81.6635C137.334 81.4471 137.356 81.232 137.38 81.0173C138.273 81.289 141.062 81.7408 144.38 82.1378C147.395 82.4991 149.994 82.7129 151.143 82.7098C151.136 82.8219 151.13 82.9346 151.131 83.0498C151.133 83.1695 151.14 83.287 151.153 83.4036C150.003 83.4279 147.411 83.6995 144.407 84.1297C141.098 84.6032 138.321 85.1195 137.435 85.4097C137.405 85.1959 137.377 84.9821 137.355 84.7662ZM138.407 89.2763C138.916 89.0577 139.153 88.303 138.933 87.5155C138.713 86.7332 138.121 86.2139 137.573 86.2868C137.533 86.0713 137.498 85.854 137.466 85.6357C138.398 85.6667 141.209 85.3844 144.517 84.9106C147.524 84.4804 150.09 84.0149 151.2 83.715C151.244 83.9456 151.307 84.1686 151.39 84.3828C150.285 84.703 147.85 85.6353 145.056 86.8269C141.975 88.1426 139.423 89.3602 138.647 89.8686C138.565 89.6725 138.482 89.4755 138.407 89.2763ZM140.989 93.844C140.862 93.6796 140.724 93.5225 140.603 93.3533C141.033 93.0084 141.064 92.2213 140.648 91.5213C140.234 90.8208 139.526 90.4724 139.016 90.6866C138.919 90.486 138.826 90.2811 138.736 90.0771C139.639 89.8686 142.286 88.8692 145.367 87.553C148.16 86.3618 150.519 85.2489 151.514 84.6729C151.614 84.8827 151.733 85.0824 151.868 85.27C150.884 85.8641 148.773 87.3936 146.384 89.2666C143.765 91.3155 141.625 93.1413 140.989 93.844ZM143.773 96.7275C144.1 96.2815 143.927 95.5139 143.343 94.945C142.763 94.3775 141.99 94.222 141.552 94.5612C141.404 94.3894 141.274 94.2044 141.134 94.0281C141.969 93.579 144.255 91.9373 146.87 89.8876C149.259 88.0154 151.25 86.3323 152.062 85.5178C152.213 85.6936 152.379 85.8566 152.559 86.0019C151.761 86.8318 150.117 88.8537 148.294 91.2779C146.296 93.935 144.699 96.2532 144.266 97.0955C144.103 96.9722 143.932 96.8574 143.773 96.7275ZM147.709 99.1688C147.911 98.6534 147.544 97.955 146.834 97.5553C146.124 97.1577 145.339 97.2072 145.003 97.6462C144.815 97.5173 144.637 97.3715 144.454 97.2359C145.144 96.5849 146.928 94.4093 148.926 91.7523C150.751 89.3254 152.239 87.1855 152.813 86.1892C153.003 86.3199 153.207 86.4329 153.418 86.5288C152.862 87.534 151.797 89.9146 150.66 92.7296C149.406 95.8363 148.459 98.5004 148.268 99.4085C148.081 99.3315 147.893 99.2526 147.709 99.1688ZM152.142 100.503C152.202 99.9532 151.668 99.3734 150.879 99.1727C150.088 98.971 149.339 99.2263 149.133 99.7427C148.912 99.6648 148.694 99.581 148.477 99.4943C148.969 98.7109 150.139 96.134 151.393 93.0246C152.53 90.2077 153.415 87.7544 153.712 86.645C153.929 86.7217 154.153 86.7796 154.384 86.8171C154.107 87.9324 153.692 90.5073 153.321 93.5211C152.914 96.8393 152.686 99.655 152.735 100.586C152.537 100.56 152.338 100.534 152.142 100.503ZM156.77 100.644C156.686 100.099 156.02 99.6774 155.205 99.6882C154.393 99.6969 153.738 100.135 153.668 100.682C153.43 100.664 153.195 100.642 152.96 100.615C153.234 99.7242 153.696 96.9364 154.104 93.6165C154.476 90.603 154.697 88.0057 154.698 86.856C154.814 86.8645 154.931 86.8701 155.05 86.8689C155.165 86.8675 155.279 86.8591 155.391 86.8476C155.41 87.9973 155.675 90.5907 156.096 93.5962C156.559 96.9077 157.066 99.6862 157.355 100.572C157.159 100.598 156.967 100.625 156.77 100.644ZM161.281 99.5907C161.061 99.0811 160.306 98.8443 159.519 99.0665C158.736 99.2857 158.217 99.8782 158.29 100.426C158.055 100.471 157.819 100.509 157.581 100.544C157.615 99.6151 157.341 96.8009 156.877 93.488C156.458 90.4799 156 87.912 155.702 86.8017C155.934 86.7589 156.157 86.6971 156.372 86.615C156.688 87.719 157.614 90.158 158.797 92.954C160.102 96.039 161.313 98.5969 161.818 99.3734C161.639 99.4475 161.461 99.5225 161.281 99.5907ZM165.356 97.3949C165.011 96.9647 164.224 96.9324 163.524 97.349C162.824 97.7637 162.475 98.4731 162.691 98.9827C162.471 99.0879 162.249 99.1902 162.026 99.2867C161.822 98.3864 160.829 95.7339 159.523 92.6476C158.34 89.8505 157.234 87.489 156.661 86.4921C156.872 86.3914 157.072 86.2744 157.259 86.1388C157.851 87.125 159.375 89.2415 161.239 91.6362C163.28 94.2596 165.101 96.4077 165.801 97.0447C165.653 97.1595 165.509 97.284 165.356 97.3949ZM168.73 94.2233C168.284 93.897 167.516 94.071 166.949 94.6535C166.38 95.2347 166.226 96.0085 166.565 96.4454C166.378 96.6052 166.178 96.7488 165.985 96.9003C165.538 96.0637 163.904 93.7733 161.86 91.1512C159.997 88.7569 158.32 86.7615 157.509 85.9462C157.684 85.7956 157.847 85.6291 157.994 85.4498C158.821 86.2505 160.837 87.8993 163.258 89.7304C165.908 91.7382 168.22 93.3418 169.063 93.7777C168.95 93.9244 168.848 94.0798 168.73 94.2233ZM171.17 90.2877C170.655 90.0855 169.955 90.452 169.558 91.1631C169.159 91.8711 169.21 92.6581 169.649 92.9934C169.508 93.1983 169.351 93.3904 169.203 93.5905C168.554 92.8966 166.384 91.107 163.734 89.1023C161.314 87.2694 159.177 85.774 158.183 85.1968C158.322 84.994 158.443 84.7776 158.544 84.5479C159.555 85.0951 161.944 86.1388 164.771 87.2492C167.892 88.4761 170.566 89.3996 171.473 89.5793C171.376 89.8183 171.276 90.0537 171.17 90.2877ZM172.502 85.8531C171.954 85.7935 171.374 86.3274 171.173 87.117C170.972 87.908 171.228 88.6566 171.743 88.8634C171.684 89.0334 171.618 89.2 171.552 89.3677C170.762 88.8819 168.175 87.7389 165.057 86.5151C162.231 85.4034 159.768 84.5404 158.657 84.2538C158.731 84.037 158.786 83.8126 158.821 83.5803C159.938 83.8471 162.518 84.2384 165.536 84.5807C168.86 84.9587 171.678 85.1605 172.608 85.1023C172.577 85.3531 172.543 85.604 172.502 85.8531ZM165.624 83.7958C162.606 83.454 160.006 83.257 158.858 83.2676C158.864 83.1621 158.87 83.057 158.869 82.9509C158.867 82.8228 158.859 82.6974 158.846 82.5742C159.995 82.5419 162.585 82.2527 165.585 81.8053C168.895 81.3123 171.67 80.7784 172.552 80.4816C172.587 80.7289 172.617 80.9758 172.642 81.2262C172.097 81.3111 171.678 81.9762 171.688 82.7906C171.698 83.6019 172.135 84.2569 172.682 84.328C172.669 84.5104 172.65 84.6919 172.63 84.8739C171.734 84.6089 168.944 84.173 165.624 83.7958Z" fill="#CBA96D"/>
<path d="M183 189C183 183.227 187.18 179.78 191.718 179.286C192.398 179.212 193.086 179.197 193.769 179.241C198.5 179.549 203 183.01 203 189H183Z" fill="#CBA96D"/>
<path d="M154.5 212.5H152.5V233.759V234.11V236V241.476C153.191 241.675 153.809 241.675 154.5 241.476V236V234.088V233.689V212.5Z" fill="#CBA96D"/>
<path d="M159 239H239.5L238.071 236H154.5V241.476C155.607 241.159 156.904 240.334 159 239Z" fill="#CBA96D"/>
<path d="M69 236V239H148C150.096 240.334 151.393 241.159 152.5 241.476V236H69Z" fill="#CBA96D"/>
<path d="M101 197C96.1184 207.154 93.3816 212.846 88.5 223M101 197L88.5 223M101 197H103.25M88.5 223C114.559 216.988 129.164 216.623 152.5 233.759M152.5 233.759V212.5H154.5V233.689M152.5 233.759V234.11M94.1429 197.5L77 230.5C111.847 222.691 127.795 224.522 152.5 234.11M94.1429 197.5L97 192H101.5M94.1429 197.5H87.5L69 236M152.5 234.11V236M69 236V239H148C150.096 240.334 151.393 241.159 152.5 241.476M69 236H152.5M152.5 241.476C153.191 241.675 153.809 241.675 154.5 241.476M152.5 241.476V236M152.5 236H154.5M239.5 239H159C156.904 240.334 155.607 241.159 154.5 241.476M239.5 239L219.5 197H212.532M239.5 239L238.071 236H154.5M154.5 241.476V236M212.532 197L210 192H207M212.532 197L230 231.5C197.369 222.985 180.7 223.37 154.5 234.088M154.5 236V234.088M154.5 234.088V233.689M154.5 233.689C174.434 217.696 189.389 216.085 218.5 223L206 197H204" stroke="#CBA96D"/>
<path d="M118.5 156C118.5 110 189.5 108.5 189.5 156H118.5Z" fill="#CBA96D"/>
<path d="M198 158H110V162H198V158Z" fill="#CBA96D"/>
<path d="M128 164H121.5V178.62C124.831 180.604 126.228 182.525 128 186.5V164Z" fill="#CBA96D"/>
<path d="M139.5 164H132V186.5H139.5V164Z" fill="#CBA96D"/>
<path d="M152 164H144V186.5H152V164Z" fill="#CBA96D"/>
<path d="M164 164H156.5V186.5H164V164Z" fill="#CBA96D"/>
<path d="M176.5 164H168.5V186.5H176.5V164Z" fill="#CBA96D"/>
<path d="M181 164H188V178.624C184.496 180.686 182.839 182.418 181 186.5V164Z" fill="#CBA96D"/>
<path d="M106 189C106 183.227 110.18 179.78 114.718 179.286C115.398 179.212 116.086 179.197 116.769 179.241C121.5 179.549 126 183.01 126 189H106Z" fill="#CBA96D"/>
<path d="M119 196H125V210H119V196Z" fill="#CBA96D"/>
<path d="M106 196H113V210H106V196Z" fill="#CBA96D"/>
<path d="M129 190H103V195H129V190Z" fill="#CBA96D"/>
<path d="M196 196H202V210H196V196Z" fill="#CBA96D"/>
<path d="M183 196H190V210H183V196Z" fill="#CBA96D"/>
<path d="M206 190H180V195H206V190Z" fill="#CBA96D"/>
<path d="M128 199.5H180V210H128V199.5Z" fill="#CBA96D"/>
<path d="M131 189H177.5V197H131V189Z" fill="#CBA96D"/>
<path d="M160 113C160 114.105 157.538 114.5 154.5 114.5C151.462 114.5 149 114.105 149 113C149 111.895 151.462 111 154.5 111C157.538 111 160 111.895 160 113Z" fill="#CBA96D"/>
<path d="M145 116.692C145 116.306 145.293 115.983 145.678 115.947C151.739 115.379 156.926 115.325 163.325 115.944C163.709 115.982 164 116.305 164 116.69C164 117.127 163.627 117.472 163.191 117.441C156.951 117.005 151.802 117.032 145.806 117.443C145.371 117.473 145 117.129 145 116.692Z" fill="#CBA96D"/>
<path d="M147 119.175C147 118.796 147.283 118.476 147.659 118.432C152.353 117.883 156.392 117.831 161.344 118.429C161.719 118.475 162 118.795 162 119.173C162 119.616 161.617 119.963 161.175 119.925C156.396 119.511 152.417 119.536 147.822 119.927C147.381 119.964 147 119.618 147 119.175Z" fill="#CBA96D"/>
<path d="M190.5 176.833C192.402 176.179 193.987 176.112 196 176.833V178.333C194.005 177.81 192.412 177.845 190.5 178.333V176.833Z" fill="#CBA96D"/>
<path d="M190.5 176.333C192.619 175.379 193.841 175.316 196 176.333C196.025 172.556 190.525 172.556 190.5 176.333Z" fill="#CBA96D"/>
<path d="M113.5 176.833C115.402 176.179 116.987 176.112 119 176.833V178.333C117.005 177.81 115.412 177.845 113.5 178.333V176.833Z" fill="#CBA96D"/>
<path d="M113.5 176.333C115.619 175.379 116.841 175.316 119 176.333C119.025 172.556 113.525 172.556 113.5 176.333Z" fill="#CBA96D"/>
<path d="M161.283 22.5337C161.283 23.4723 161.202 24.2816 161.04 24.9619C160.886 25.6077 160.655 26.1803 160.348 26.6797C160.064 27.1274 159.712 27.5106 159.291 27.8292C158.87 28.1391 158.36 28.3845 157.761 28.5654C157.161 28.7462 156.457 28.8366 155.647 28.8366C154.667 28.8366 153.825 28.7203 153.121 28.4879C152.424 28.2554 151.846 27.8765 151.384 27.3513C150.931 26.8174 150.603 26.1932 150.4 25.4785C150.198 24.7552 150.096 23.8382 150.096 22.7275V14.2289C150.096 13.5573 150.076 13.1053 150.036 12.8728C149.995 12.6317 149.935 12.4423 149.854 12.3045C149.781 12.1667 149.671 12.0505 149.526 11.9558C149.38 11.8524 149.109 11.7448 148.712 11.6329V11H153.813V11.6329C153.36 11.7534 153.044 11.8912 152.866 12.0462C152.688 12.1926 152.566 12.4164 152.501 12.7178C152.437 13.0192 152.404 13.5229 152.404 14.2289V23.3732C152.404 24.2085 152.485 24.9102 152.647 25.4785C152.817 26.0468 153.052 26.4902 153.352 26.8088C153.651 27.1188 154.007 27.347 154.42 27.4934C154.833 27.6311 155.348 27.7 155.963 27.7C156.53 27.7 157.028 27.5967 157.457 27.39C157.886 27.1748 158.242 26.8519 158.526 26.4214C158.817 25.9908 159.016 25.4613 159.121 24.8327C159.226 24.2042 159.279 23.3603 159.279 22.3012V14.2289C159.279 13.4798 159.242 12.9675 159.17 12.692C159.105 12.4164 158.991 12.2055 158.829 12.0591C158.676 11.9127 158.352 11.7706 157.858 11.6329V11H162.704V11.6329C162.234 11.762 161.91 11.9041 161.732 12.0591C161.562 12.2141 161.445 12.4379 161.38 12.7307C161.315 13.0235 161.283 13.5229 161.283 14.2289V22.5337Z" fill="#CBA96D"/>
<path d="M90.8296 26.3936L92.5086 29.8616L91.4503 30.4409C91.1607 30.1249 90.8898 29.8568 90.6374 29.6366C90.3851 29.4164 90.1514 29.2442 89.9364 29.1198C89.7213 28.9954 89.5104 28.9172 89.3036 28.8851C89.1041 28.8491 88.8942 28.8671 88.6741 28.9392C88.4503 29.0036 88.198 29.1127 87.9172 29.2664L84.5048 31.1345L87.418 37.1518L89.7289 35.8866C90.0457 35.7132 90.2718 35.5313 90.4073 35.3409C90.5391 35.1429 90.607 34.8975 90.611 34.6047C90.6222 34.3081 90.5632 33.8852 90.434 33.3361L91.4491 32.7804L93.584 37.19L92.5689 37.7457C92.2457 37.3416 91.9673 37.0582 91.7337 36.8955C91.4964 36.7252 91.2673 36.6375 91.0464 36.6326C90.8326 36.6237 90.5565 36.7119 90.2182 36.8972L87.9072 38.1623L91.115 44.7881L94.4735 42.9496C94.8263 42.7564 95.0958 42.5701 95.2821 42.3907C95.4719 42.1996 95.609 41.9841 95.6933 41.7443C95.7738 41.4968 95.8141 41.2133 95.8142 40.8937C95.8143 40.574 95.789 40.2586 95.7385 39.9473C95.6915 39.6244 95.6139 39.1632 95.5059 38.5638L96.575 37.9785L98.3212 42.1215L88.3214 47.5959L88.049 47.0332C88.436 46.6663 88.67 46.3688 88.7507 46.1406C88.8278 45.9047 88.8212 45.6372 88.731 45.3379C88.6479 45.0347 88.4693 44.5999 88.195 44.0334L83.386 34.1003C83.1303 33.5721 82.927 33.1992 82.7761 32.9816C82.6215 32.7563 82.4695 32.6022 82.3201 32.5194C82.1742 32.4249 82.0143 32.3769 81.8404 32.3752C81.6629 32.3659 81.3844 32.4021 81.0051 32.4839L80.7327 31.9212L90.8296 26.3936Z" fill="#CBA96D"/>
<path d="M121.2 14.9159L121.928 18.4088L120.754 18.6854C120.412 17.9988 120.05 17.4756 119.668 17.1158C119.284 16.7475 118.88 16.5166 118.454 16.423C118.028 16.3293 117.542 16.3467 116.997 16.4753C116.182 16.6672 115.516 17.1286 114.996 17.8595C114.483 18.5802 114.165 19.5634 114.043 20.8092C113.92 22.0466 114.029 23.485 114.37 25.1242C114.714 26.7719 115.157 28.1446 115.701 29.2423C116.243 30.3316 116.869 31.1058 117.579 31.5648C118.286 32.0154 119.067 32.1401 119.921 31.9389C120.569 31.7861 121.078 31.5646 121.449 31.2744C121.818 30.9758 122.097 30.5795 122.284 30.0856C122.479 29.5898 122.617 28.8959 122.696 28.0041L123.87 27.7274L124.622 31.3338C123.922 31.7191 123.192 32.0544 122.43 32.3397C121.678 32.6316 120.836 32.8874 119.903 33.1072C117.895 33.5804 116.226 33.2151 114.897 32.0114C113.568 30.8077 112.605 28.7725 112.008 25.9059C111.633 24.1069 111.569 22.4682 111.817 20.99C112.072 19.5098 112.641 18.2779 113.522 17.294C114.404 16.3102 115.564 15.6488 117.003 15.3097C117.722 15.1402 118.395 15.0257 119.021 14.9664C119.646 14.8986 120.372 14.8817 121.2 14.9159Z" fill="#CBA96D"/>
<path d="M137.181 29.8947C136.219 30.0437 135.319 30.0136 134.48 29.8043C133.648 29.5852 132.899 29.1662 132.233 28.5472C131.574 27.9184 131.013 27.0744 130.548 26.0152C130.092 24.9548 129.758 23.6534 129.547 22.1113C129.286 20.2112 129.335 18.5373 129.693 17.0896C130.051 15.6419 130.686 14.4861 131.599 13.6224C132.518 12.749 133.647 12.2085 134.985 12.001C136.411 11.7799 137.655 11.9308 138.717 12.4536C139.786 12.9666 140.654 13.8371 141.321 15.0649C141.996 16.283 142.461 17.825 142.717 19.691C142.99 21.6848 142.94 23.411 142.568 24.8698C142.195 26.3285 141.542 27.4782 140.61 28.3188C139.686 29.1582 138.543 29.6835 137.181 29.8947ZM131.974 21.3696C132.332 23.9853 132.961 25.9196 133.862 27.1723C134.77 28.4237 135.913 28.9426 137.291 28.729C138.164 28.5936 138.865 28.1847 139.393 27.5024C139.921 26.8116 140.258 25.8717 140.406 24.6828C140.554 23.4938 140.523 22.1368 140.314 20.6116C140.06 18.7542 139.669 17.2442 139.141 16.0817C138.62 14.9094 138.013 14.0942 137.32 13.636C136.628 13.1778 135.872 13.0121 135.055 13.1388C134.334 13.2506 133.738 13.5258 133.266 13.9644C132.802 14.4017 132.444 14.9794 132.19 15.6974C131.944 16.4057 131.804 17.2408 131.773 18.2029C131.749 19.1638 131.816 20.2193 131.974 21.3696Z" fill="#CBA96D"/>
<path d="M172.596 21.4117L172.206 25.7834C172.151 26.4005 172.131 26.8526 172.146 27.1395C172.17 27.4187 172.22 27.6357 172.295 27.7903C172.372 27.9364 172.482 28.0643 172.627 28.1741C172.772 28.2753 173.026 28.4003 173.387 28.5492L173.33 29.1792L168.228 28.6642L168.284 28.0341C168.796 27.9474 169.144 27.8312 169.328 27.6854C169.512 27.5311 169.643 27.302 169.718 26.9983C169.802 26.6954 169.873 26.2268 169.929 25.5925L170.922 14.4704C170.975 13.8789 170.993 13.4483 170.976 13.1785C170.961 12.9001 170.911 12.6832 170.827 12.5277C170.752 12.3645 170.642 12.2323 170.496 12.1311C170.352 12.0213 170.099 11.892 169.738 11.7432L169.794 11.1131L175.78 11.7172C177.666 11.9076 179.044 12.4143 179.914 13.2373C180.784 14.0603 181.151 15.239 181.014 16.7733C180.909 17.9477 180.513 18.9154 179.827 19.6765C179.149 20.4384 178.181 20.9893 176.923 21.3294L176.913 21.4322C177.386 21.6962 177.778 22.0471 178.088 22.4849C178.408 22.915 178.744 23.5717 179.096 24.4548L179.996 26.6734C180.255 27.3223 180.483 27.821 180.68 28.1695C180.876 28.518 181.084 28.7898 181.302 28.9848C181.521 29.1799 181.821 29.3312 182.201 29.4388L182.145 30.0689L178.796 29.7308C178.53 29.2456 178.283 28.7277 178.056 28.1771C177.829 27.6266 177.606 27.0679 177.388 26.501L176.516 24.2463C176.251 23.5623 176.028 23.0554 175.846 22.7257C175.672 22.3968 175.502 22.1633 175.335 22.0254C175.178 21.8798 175 21.7753 174.802 21.7121C174.613 21.6412 174.321 21.5858 173.926 21.5459L172.596 21.4117ZM173.377 12.6683L172.695 20.3059L174.061 20.4438C174.763 20.5146 175.335 20.5205 175.78 20.4616C176.225 20.3941 176.647 20.229 177.044 19.9664C177.442 19.7038 177.773 19.3178 178.038 18.8083C178.312 18.291 178.484 17.6424 178.553 16.8624C178.626 16.048 178.554 15.3574 178.336 14.7905C178.126 14.2245 177.768 13.7731 177.261 13.4366C176.754 13.1 176.049 12.8861 175.147 12.795C174.421 12.7218 173.831 12.6796 173.377 12.6683Z" fill="#CBA96D"/>
<path d="M189.401 14.7556L201.981 18.7978L200.759 23.1003L199.619 22.7342C199.65 21.9706 199.639 21.3553 199.586 20.8884C199.54 20.424 199.455 20.0547 199.329 19.7806C199.204 19.5066 199.046 19.2893 198.855 19.1289C198.671 18.971 198.366 18.8236 197.94 18.6866L196.463 18.2121L192.866 30.8724C192.728 31.3587 192.641 31.7536 192.605 32.057C192.578 32.363 192.59 32.6186 192.641 32.8241C192.703 33.0238 192.809 33.2018 192.959 33.358C193.111 33.5059 193.365 33.6863 193.719 33.899L193.547 34.5048L188.233 32.7975L188.405 32.1917C188.654 32.2087 188.877 32.2129 189.074 32.2042C189.271 32.1956 189.437 32.1633 189.571 32.1075C189.716 32.046 189.844 31.9522 189.956 31.8263C190.075 31.7028 190.191 31.5196 190.302 31.2765C190.421 31.0359 190.551 30.6684 190.692 30.1738L194.289 17.5135L192.824 17.0428C192.46 16.9257 192.147 16.8657 191.886 16.8627C191.632 16.8621 191.371 16.949 191.101 17.1233C190.834 17.2893 190.553 17.5633 190.258 17.9454C189.974 18.3217 189.664 18.8159 189.33 19.428L188.179 19.0581L189.401 14.7556Z" fill="#CBA96D"/>
<path d="M218.145 45.0192C217.308 44.495 216.624 43.872 216.093 43.1502C215.574 42.4254 215.237 41.5999 215.082 40.6739C214.939 39.7448 214.998 38.7128 215.26 37.5778C215.529 36.4472 216.035 35.2103 216.778 33.8673C217.694 32.2125 218.718 30.94 219.85 30.0498C220.982 29.1596 222.158 28.6817 223.378 28.6162C224.609 28.5476 225.807 28.878 226.973 29.6074C228.215 30.3849 229.096 31.331 229.616 32.4458C230.147 33.5574 230.311 34.8141 230.108 36.2159C229.916 37.6146 229.37 39.1265 228.471 40.7515C227.51 42.4879 226.454 43.8005 225.304 44.6895C224.155 45.5784 222.969 46.0401 221.747 46.0746C220.532 46.1135 219.332 45.7617 218.145 45.0192ZM219.107 34.9053C217.846 37.1833 217.197 39.1104 217.161 40.6864C217.132 42.2667 217.718 43.4325 218.918 44.1838C219.678 44.6599 220.466 44.808 221.279 44.6279C222.097 44.4405 222.914 43.9326 223.73 43.1042C224.545 42.2759 225.321 41.1976 226.056 39.8693C226.951 38.2517 227.536 36.8141 227.809 35.5564C228.094 34.2957 228.101 33.256 227.83 32.4373C227.56 31.6187 227.069 30.9866 226.357 30.5411C225.729 30.148 225.102 29.9653 224.476 29.993C223.857 30.0251 223.237 30.2366 222.617 30.6276C222.007 31.0155 221.407 31.5739 220.816 32.3028C220.231 33.0361 219.662 33.9035 219.107 34.9053Z" fill="#CBA96D"/>
<path d="M246.571 45.1349L244.311 48.207L243.373 47.4271C243.572 46.8493 243.709 46.3622 243.785 45.9659C243.867 45.575 243.89 45.2439 243.853 44.9727C243.822 44.7068 243.734 44.4637 243.587 44.2435C243.441 44.0233 243.211 43.7832 242.899 43.5233L240.096 41.1915L236.025 46.7253L237.995 48.3648C238.276 48.5982 238.531 48.7338 238.76 48.7715C238.994 48.8024 239.247 48.745 239.519 48.5993C239.797 48.4589 240.161 48.1878 240.611 47.7858L241.51 48.5339L238.352 52.8267L237.453 52.0787C237.696 51.5379 237.849 51.1072 237.91 50.7864C237.976 50.4588 237.968 50.1839 237.884 49.9617C237.813 49.7379 237.63 49.504 237.337 49.2599L235.366 47.6205L232.432 51.6082C232.133 52.0151 231.916 52.3592 231.781 52.6404C231.646 52.9217 231.577 53.176 231.574 53.4033C231.571 53.6306 231.629 53.8532 231.746 54.0711C231.868 54.2821 232.035 54.5243 232.245 54.7975L231.878 55.296L227.631 51.7625L227.997 51.2641C228.473 51.4845 228.825 51.586 229.053 51.5686C229.287 51.5443 229.513 51.4261 229.731 51.2138C229.955 51.0068 230.252 50.6523 230.621 50.1505L237.095 41.3512C237.439 40.8833 237.672 40.5309 237.795 40.2942C237.923 40.0506 237.991 39.8394 237.999 39.6604C238.019 39.48 237.993 39.3055 237.922 39.1369C237.856 38.9615 237.708 38.7076 237.48 38.3754L237.846 37.877L246.571 45.1349Z" fill="#CBA96D"/>
<path d="M253.612 71.4955C253.201 71.8724 252.911 72.1611 252.742 72.3616C252.579 72.5686 252.468 72.7553 252.411 72.9218C252.359 73.0948 252.349 73.2802 252.381 73.4781C252.419 73.6825 252.522 73.9683 252.692 74.3357L252.241 74.7492L248.892 70.6231L249.343 70.2096C249.769 70.5237 250.096 70.6958 250.324 70.7258C250.557 70.7501 250.8 70.6806 251.053 70.5172C251.31 70.3603 251.666 70.0736 252.12 69.6573L260.073 62.3575C260.496 61.9693 260.789 61.6717 260.953 61.4647C261.123 61.2521 261.228 61.0589 261.268 60.885C261.321 60.7121 261.327 60.5355 261.288 60.3554C261.255 60.1697 261.156 59.8903 260.993 59.5173L261.443 59.1038L264.792 63.2299L264.342 63.6434C264.042 63.4185 263.805 63.2718 263.632 63.2033C263.464 63.1414 263.296 63.1191 263.128 63.1365C262.972 63.1548 262.777 63.2373 262.543 63.3838C262.314 63.5369 261.988 63.8075 261.565 64.1957L253.612 71.4955Z" fill="#CBA96D"/>
<path d="M267.233 83.7786C267.017 84.3357 266.821 84.8127 266.645 85.2098C266.473 85.6138 266.268 86.0494 266.03 86.5168L266.124 86.6516C266.496 86.3036 267.261 85.6507 268.418 84.6929C269.581 83.73 270.637 82.8734 271.585 82.1232L273.632 80.5044C274.08 80.1499 274.398 79.8765 274.587 79.6845C274.776 79.4924 274.899 79.3147 274.956 79.1513C275.018 78.9949 275.036 78.8253 275.009 78.6427C274.993 78.4618 274.917 78.179 274.779 77.7944L275.256 77.4167L277.866 81.1475L277.388 81.5252C277.093 81.276 276.867 81.1114 276.71 81.0315C276.558 80.9586 276.401 80.9217 276.239 80.921C276.082 80.9273 275.885 80.9919 275.648 81.1149C275.411 81.2378 275.056 81.4869 274.581 81.862L263.656 90.5029L262.75 89.2075L267.815 76.2357C268.129 75.4293 268.363 74.8474 268.516 74.4898C268.67 74.1323 268.828 73.7877 268.989 73.456L268.866 73.2798C268.399 73.7239 267.517 74.4753 266.219 75.534C264.928 76.5877 263.633 77.6284 262.333 78.6561L260.345 80.2286C259.91 80.5729 259.601 80.8385 259.419 81.0255C259.242 81.2193 259.119 81.397 259.05 81.5586C258.986 81.7271 258.964 81.9113 258.982 82.1111C259.006 82.3179 259.09 82.611 259.234 82.9905L258.757 83.3682L256.111 79.5855L256.588 79.2078C256.992 79.554 257.306 79.7508 257.531 79.7982C257.763 79.8405 258.01 79.7899 258.273 79.6464C258.54 79.5097 258.915 79.2513 259.395 78.871L267.825 72.2034C268.274 71.8488 268.586 71.5746 268.764 71.3808C268.947 71.1818 269.066 70.9972 269.118 70.8269C269.182 70.6584 269.2 70.4828 269.173 70.3002C269.153 70.1124 269.074 69.8262 268.936 69.4415L269.414 69.0638L271.683 72.3076L267.233 83.7786Z" fill="#CBA96D"/>
<path d="M266.979 95.8262L267.519 95.5595C267.764 95.8751 267.961 96.091 268.11 96.2073C268.259 96.3235 268.415 96.3938 268.577 96.418C268.739 96.4422 268.947 96.4157 269.199 96.3386C269.451 96.2616 269.83 96.0978 270.337 95.8474L279.864 91.1388C280.378 90.8848 280.741 90.682 280.951 90.5304C281.169 90.3753 281.32 90.22 281.404 90.0646C281.491 89.917 281.539 89.7509 281.548 89.5662C281.564 89.378 281.539 89.0767 281.474 88.6626L282.014 88.3958L284.256 93.5259C284.901 95.0017 285.274 96.2843 285.375 97.3737C285.487 98.4673 285.387 99.4852 285.076 100.427C284.764 101.369 284.234 102.22 283.486 102.979C282.744 103.735 281.761 104.416 280.534 105.022C279.293 105.635 278.133 106.023 277.052 106.187C275.983 106.355 275.002 106.308 274.111 106.046C273.334 105.822 272.608 105.435 271.93 104.887C271.374 104.431 270.861 103.84 270.391 103.113C269.922 102.386 269.402 101.37 268.832 100.066L266.979 95.8262ZM269.565 98.8923C269.672 99.2191 269.859 99.6871 270.125 100.296C270.411 100.952 270.719 101.512 271.047 101.977C271.375 102.441 271.741 102.83 272.146 103.143C272.55 103.456 273.021 103.684 273.556 103.827C274.1 103.967 274.671 104.017 275.27 103.977C275.876 103.934 276.511 103.805 277.177 103.59C277.845 103.384 278.55 103.097 279.292 102.73C280.782 101.994 281.904 101.159 282.658 100.227C283.422 99.2983 283.841 98.3075 283.917 97.2543C283.996 96.2088 283.782 95.1083 283.277 93.9527C283.045 93.4217 282.81 92.9253 282.573 92.4635L269.565 98.8923Z" fill="#CBA96D"/>
<path d="M280.808 134.215L281.387 134.065C281.561 134.463 281.718 134.75 281.859 134.927C282.001 135.111 282.166 135.232 282.355 135.29C282.551 135.346 282.79 135.337 283.074 135.264C283.341 135.194 283.621 135.087 283.912 134.94C284.211 134.792 284.54 134.605 284.896 134.38L286.312 133.521L284.974 127.673L283.72 127.546C283.088 127.479 282.615 127.451 282.3 127.461C281.986 127.472 281.707 127.509 281.463 127.572C280.991 127.694 280.674 127.909 280.511 128.217C280.35 128.533 280.294 128.964 280.344 129.51L279.766 129.659L278.539 124.301L280.107 123.151C280.285 123.601 279.644 124.941 280.163 125.17C280.684 125.407 281.391 125.583 282.284 125.698L296.546 127.55L297 129.533L284.818 137.205C284.25 137.564 283.822 137.861 283.534 138.095C283.248 138.338 283.039 138.591 282.908 138.855C282.777 139.12 282.711 139.451 282.711 139.85L282.133 140L280.808 134.215ZM286.078 127.746L287.279 132.992L294.345 128.638L286.078 127.746Z" fill="#CBA96D"/>
<path d="M73.5884 36.5959C73.3485 36.8917 73.1881 37.1279 73.1071 37.3045C73.0327 37.4762 72.9955 37.6517 72.9954 37.8308C72.9973 37.998 73.0554 38.2126 73.1697 38.4746C73.2906 38.7316 73.5121 39.1029 73.8341 39.5884L79.8892 48.7183C80.2019 49.1898 80.4438 49.5247 80.6149 49.7229C80.7927 49.9163 80.9566 50.0514 81.1068 50.1285C81.2636 50.2006 81.4362 50.2292 81.6245 50.2144C81.8195 50.1946 82.0972 50.1128 82.4576 49.969L82.8006 50.4861L78.6615 53.5902L78.3185 53.073C78.6303 52.6916 78.817 52.383 78.8786 52.1472C78.9402 51.9114 78.9158 51.6505 78.8054 51.3645C78.695 51.0785 78.4508 50.6505 78.0728 50.0806L75.3917 46.038C74.687 44.9755 73.9886 43.8925 73.2964 42.789C72.6061 41.6735 72.1478 40.9004 71.9215 40.4695L71.7528 40.5961L74.7593 54.0037L73.6178 54.8597L62.916 46.9703L62.7472 47.0968C63.065 47.5012 63.6104 48.2564 64.3836 49.3624C65.1634 50.4635 65.9476 51.6086 66.7363 52.7978L69.2983 56.6609C69.611 57.1323 69.8529 57.4672 70.0241 57.6655C70.2018 57.8588 70.3658 57.994 70.516 58.071C70.6727 58.1431 70.8453 58.1717 71.0337 58.1569C71.2286 58.1371 71.5063 58.0553 71.8667 57.9115L72.2097 58.4287L68.5868 61.1456L68.2438 60.6285C68.5794 60.2082 68.7723 59.8791 68.8226 59.6412C68.8682 59.3963 68.8269 59.1322 68.6986 58.8491C68.5769 58.5611 68.3434 58.1567 67.9981 57.636L61.9429 48.506C61.6209 48.0205 61.371 47.6811 61.1933 47.4878C61.0108 47.2874 60.8403 47.1572 60.6815 47.0971C60.5247 47.0251 60.3601 47.001 60.1877 47.0249C60.0107 47.0418 59.7396 47.1186 59.3746 47.2554L59.0316 46.7382L62.5751 44.0808L72.8702 51.7379L69.8904 38.5947L73.2454 36.0787L73.5884 36.5959Z" fill="#CBA96D"/>
<path d="M53.043 52.003L55.628 54.7704L54.7835 55.6624C54.4177 55.454 54.0833 55.2854 53.7802 55.1565C53.4772 55.0275 53.2055 54.9383 52.9651 54.8887C52.7248 54.8391 52.5015 54.8323 52.2953 54.868C52.0948 54.8978 51.8999 54.9823 51.7105 55.1217C51.5154 55.2549 51.3058 55.4399 51.0818 55.6765L48.3587 58.5528L52.8439 63.3544L54.688 61.4066C54.9408 61.1396 55.1047 60.8936 55.1799 60.6686C55.2493 60.4375 55.2444 60.1817 55.1651 59.9014C55.0916 59.6149 54.9153 59.2307 54.6363 58.7487L55.4463 57.8931L58.7332 61.4119L57.9232 62.2675C57.5004 61.9859 57.1545 61.8051 56.8857 61.7249C56.6111 61.6387 56.3678 61.6287 56.1557 61.6949C55.9494 61.7551 55.7113 61.9278 55.4413 62.213L53.5971 64.1608L58.536 69.4481L61.216 66.6174C61.4975 66.32 61.7016 66.0559 61.8283 65.825C61.955 65.5819 62.0245 65.3325 62.0368 65.0769C62.0433 64.8151 62.0013 64.5318 61.9106 64.227C61.82 63.9223 61.7064 63.6296 61.5699 63.3491C61.4334 63.0563 61.2286 62.6416 60.9554 62.1048L61.8086 61.2037L64.6492 64.593L56.6696 73.0215L56.2502 72.5725C56.5151 72.0985 56.6536 71.7398 56.6658 71.4963C56.6723 71.2467 56.5901 70.9937 56.4192 70.7374C56.2539 70.475 55.9602 70.1178 55.5379 69.6657L48.1339 61.7393C47.7402 61.3178 47.4405 61.0275 47.2349 60.8685C47.0235 60.7033 46.8349 60.6053 46.6689 60.5742C46.503 60.531 46.337 60.5365 46.1708 60.5907C45.9988 60.6388 45.7436 60.7627 45.4052 60.9624L44.9858 60.5134L53.043 52.003Z" fill="#CBA96D"/>
<path d="M42.7312 80.0751L46.02 82.7309C46.4843 83.1059 46.8351 83.3621 47.0724 83.4997C47.3081 83.6252 47.5077 83.6945 47.6712 83.7076C47.8283 83.7155 47.9888 83.6829 48.1528 83.6099C48.3103 83.5317 48.5436 83.3687 48.8527 83.121L49.3267 83.5037L46.2268 87.8444L45.7528 87.4616C45.9532 86.9531 46.0436 86.5774 46.0239 86.3345C45.9978 86.0863 45.8834 85.8479 45.6806 85.6193C45.4827 85.3839 45.1452 85.0734 44.668 84.6881L36.301 77.9313C35.8561 77.5719 35.5214 77.3287 35.297 77.2015C35.0662 77.0692 34.8666 76.9999 34.6982 76.9937C34.5282 76.9753 34.3645 77.0053 34.207 77.0835C34.043 77.1565 33.8064 77.3169 33.4973 77.5646L33.0234 77.1819L36.6595 72.0904C37.8055 70.4858 38.9366 69.5071 40.0528 69.1543C41.169 68.8015 42.3042 69.0912 43.4585 70.0233C44.342 70.7368 44.9071 71.604 45.154 72.6251C45.4058 73.6393 45.336 74.8048 44.9448 76.1214L45.0221 76.1839C45.4821 75.8958 45.9689 75.7267 46.4826 75.6766C46.9947 75.6144 47.6965 75.6568 48.588 75.8037L50.8354 76.159C51.4907 76.2666 52.0095 76.3233 52.3916 76.3291C52.7738 76.335 53.1004 76.2906 53.3714 76.1959C53.6423 76.1012 53.9212 75.9101 54.2078 75.6226L54.6818 76.0054L52.647 78.8546C52.1191 78.8391 51.5753 78.7892 51.0154 78.7046C50.4555 78.6201 49.8917 78.527 49.3238 78.4252L47.062 78.0258C46.376 77.9043 45.8533 77.839 45.4938 77.8298C45.1393 77.8138 44.863 77.8447 44.6649 77.9227C44.4654 77.9886 44.2882 78.0942 44.1336 78.2396C43.9773 78.3729 43.7793 78.6076 43.5393 78.9436L42.7312 80.0751ZM36.1537 74.7633L41.8994 79.4033L42.7295 78.241C43.1555 77.6444 43.4621 77.1297 43.6492 76.6969C43.8298 76.2589 43.9199 75.7911 43.9194 75.2934C43.919 74.7957 43.785 74.2929 43.5174 73.7848C43.2483 73.2648 42.8203 72.7678 42.2335 72.2939C41.6209 71.7992 41.0306 71.5009 40.4628 71.3991C39.8998 71.2905 39.3503 71.3765 38.8143 71.6572C38.2783 71.938 37.736 72.4623 37.1875 73.2304C36.7468 73.8475 36.4022 74.3585 36.1537 74.7633Z" fill="#CBA96D"/>
<path d="M30.1673 107.76C30.9901 108.099 31.6704 108.472 32.2082 108.879C32.7187 109.265 33.1372 109.701 33.4637 110.187C33.7537 110.63 33.9622 111.117 34.0892 111.65C34.2086 112.18 34.2392 112.774 34.1809 113.434C34.1227 114.093 33.9471 114.824 33.6541 115.627C33.2997 116.598 32.8931 117.391 32.4344 118.005C31.9786 118.611 31.437 119.048 30.8096 119.316C30.1775 119.572 29.5116 119.671 28.8118 119.614C28.1044 119.553 27.2639 119.321 26.2901 118.919L18.8394 115.845C18.2506 115.602 17.847 115.458 17.6285 115.414C17.4025 115.367 17.2144 115.359 17.0644 115.389C16.9172 115.412 16.7758 115.478 16.64 115.588C16.4967 115.695 16.3042 115.925 16.0625 116.278L15.5077 116.049L17.3532 110.992L17.9081 111.221C17.8497 111.714 17.8562 112.077 17.9277 112.31C17.9915 112.539 18.1439 112.741 18.3846 112.914C18.6254 113.087 19.0553 113.301 19.6743 113.557L27.6911 116.865C28.4234 117.167 29.0679 117.341 29.6247 117.386C30.1845 117.423 30.6582 117.351 31.0459 117.169C31.426 116.984 31.755 116.713 32.0327 116.357C32.3029 115.997 32.5493 115.513 32.7719 114.903C32.977 114.341 33.0666 113.81 33.0407 113.309C33.0072 112.806 32.853 112.336 32.5781 111.899C32.3061 111.455 31.9137 111.066 31.4007 110.735C30.8877 110.403 30.1669 110.045 29.2384 109.662L22.1614 106.742C21.5047 106.471 21.0423 106.322 20.7744 106.294C20.5094 106.259 20.2835 106.295 20.0965 106.402C19.9126 106.502 19.6708 106.772 19.3713 107.211L18.8165 106.982L20.5698 102.178L21.1246 102.407C21.068 102.919 21.0753 103.292 21.1468 103.525C21.2211 103.749 21.3749 103.947 21.6081 104.117C21.8414 104.287 22.2675 104.5 22.8865 104.755L30.1673 107.76Z" fill="#CBA96D"/>
<path d="M23.3127 135.902C24.039 135.987 24.6423 135.964 25.1227 135.831C25.6031 135.698 26.0105 135.447 26.345 135.079C26.6718 134.707 26.948 134.175 27.1734 133.484C27.4837 132.532 27.4878 131.718 27.1855 131.041C26.8859 130.357 26.2886 129.85 25.3934 129.52C24.8196 129.308 24.3032 129.236 23.844 129.304C23.3849 129.372 22.9049 129.582 22.4042 129.935C21.9034 130.288 21.2631 130.872 20.4831 131.687C19.729 132.476 19.0514 133.069 18.4503 133.467C17.8415 133.862 17.2434 134.106 16.6559 134.2C16.0711 134.285 15.4841 134.219 14.8951 134.002C14.0382 133.686 13.365 133.201 12.8756 132.546C12.3812 131.881 12.0958 131.074 12.0194 130.126C11.9456 129.169 12.0825 128.158 12.4299 127.092C12.6315 126.474 12.8584 125.883 13.1105 125.32C13.3654 124.748 13.7444 124.059 14.2478 123.251L17.3462 124.393L16.9524 125.601C16.2181 125.54 15.6171 125.583 15.1494 125.73C14.6817 125.876 14.3129 126.114 14.0428 126.443C13.7652 126.768 13.5269 127.237 13.328 127.847C13.1556 128.375 13.0922 128.885 13.1379 129.376C13.1862 129.859 13.3581 130.291 13.6534 130.673C13.941 131.053 14.3412 131.337 14.8538 131.526C15.397 131.726 15.8891 131.794 16.3303 131.728C16.7742 131.655 17.2284 131.458 17.6929 131.137C18.1575 130.816 18.7292 130.298 19.4082 129.582C20.2373 128.722 20.9551 128.084 21.5616 127.67C22.1707 127.247 22.7985 126.977 23.4452 126.86C24.0868 126.732 24.7672 126.801 25.4863 127.066C26.2897 127.362 26.9268 127.747 27.3978 128.222C27.8611 128.693 28.1905 129.234 28.3859 129.844C28.5764 130.442 28.6432 131.105 28.5863 131.831C28.5245 132.547 28.365 133.299 28.1077 134.088C27.6913 135.365 27.0085 136.763 26.0593 138.281L22.9149 137.122L23.3127 135.902Z" fill="#CBA96D"/>
<path d="M36.8157 97.4864C37.2434 97.715 37.5949 97.8741 37.8703 97.9636C38.1492 98.0454 38.3883 98.077 38.5875 98.0585C38.783 98.0283 38.9658 97.9481 39.1358 97.8178C39.2986 97.6836 39.5083 97.4494 39.7649 97.1153L40.2977 97.4002L37.9201 102.463L37.3874 102.178C37.4952 101.639 37.5182 101.253 37.4563 101.017C37.3872 100.778 37.233 100.566 36.9937 100.381C36.758 100.187 36.372 99.9472 35.8356 99.6604L26.4305 94.6323C25.9303 94.3649 25.5588 94.1904 25.3161 94.1087C25.0661 94.0231 24.8578 93.9935 24.6912 94.0199C24.521 94.0347 24.3654 94.0958 24.2243 94.2031C24.076 94.3066 23.8717 94.51 23.6113 94.8132L23.0786 94.5284L25.7649 88.8083C26.6097 87.0093 27.5642 85.8459 28.6282 85.3182C29.6885 84.7789 30.8819 84.8638 32.2084 85.573C32.9623 85.976 33.5751 86.4768 34.0467 87.0752C34.5184 87.6736 34.8271 88.3292 34.973 89.042C35.1189 89.7549 35.1127 90.5018 34.9545 91.2829C34.7962 92.064 34.5384 92.8351 34.1809 93.5962C33.7801 94.4496 33.4551 95.1031 33.2059 95.5565L36.8157 97.4864ZM32.3034 95.0741L32.9317 93.7363C33.3397 92.8675 33.5704 92.0963 33.6237 91.4227C33.6735 90.7375 33.5223 90.1132 33.1702 89.5499C32.8109 88.9826 32.2216 88.4801 31.4025 88.0422C30.7792 87.7089 30.2194 87.5203 29.7231 87.4762C29.2197 87.4283 28.7671 87.4941 28.3653 87.6737C27.9672 87.8456 27.6163 88.1197 27.3126 88.496C27.0017 88.8684 26.7271 89.3083 26.4888 89.8157C26.1313 90.5769 25.8769 91.1574 25.7253 91.5573L32.3034 95.0741Z" fill="#CBA96D"/>
<path d="M279.237 116.294C278.721 116.481 278.349 116.635 278.12 116.754C277.894 116.881 277.725 117.011 277.612 117.143C277.501 117.283 277.425 117.451 277.383 117.647C277.344 117.852 277.336 118.158 277.36 118.566L276.795 118.771L275.191 113.621L275.757 113.415C276.037 113.875 276.277 114.164 276.477 114.281C276.684 114.396 276.933 114.428 277.226 114.376C277.521 114.332 277.953 114.206 278.522 113.999L288.51 110.367C289.041 110.174 289.42 110.014 289.646 109.886C289.879 109.756 290.046 109.618 290.147 109.473C290.258 109.333 290.327 109.172 290.356 108.989C290.393 108.804 290.403 108.506 290.386 108.095L290.952 107.89L292.556 113.04L291.99 113.246C291.794 112.918 291.628 112.689 291.493 112.557C291.36 112.433 291.213 112.346 291.052 112.296C290.901 112.251 290.69 112.251 290.421 112.294C290.154 112.346 289.756 112.469 289.224 112.662L279.237 116.294Z" fill="#CBA96D"/>
<path d="M124.135 296.749C123.118 296.597 122.262 296.213 121.517 295.545C120.832 294.877 120.469 294.159 120.469 293.38C120.469 292.894 120.56 292.469 120.761 292.095C120.953 291.71 121.225 291.427 121.547 291.245C120.832 290.638 120.278 290.011 119.855 289.292C119.462 288.594 119.261 287.916 119.261 287.299C119.261 286.54 119.523 285.923 120.036 285.447C120.58 284.972 121.235 284.79 121.97 284.891C122.735 285.002 123.37 285.316 123.833 285.791C124.306 286.247 124.548 286.834 124.558 287.522C124.558 288.098 124.306 288.574 123.813 288.928C123.339 289.282 122.765 289.403 122.101 289.323C122.101 288.867 122.111 288.412 122.101 287.957C122.403 288.007 122.655 287.967 122.856 287.835C123.088 287.694 123.188 287.532 123.188 287.319C123.188 287.086 123.067 286.864 122.826 286.631C122.594 286.419 122.302 286.267 121.96 286.237C121.587 286.176 121.255 286.257 121.003 286.51C120.751 286.753 120.61 287.086 120.61 287.481C120.61 288.017 120.802 288.554 121.144 289.1C121.507 289.636 122.01 290.152 122.645 290.597C122.937 290.527 123.259 290.466 123.581 290.456C123.944 290.425 124.296 290.435 124.669 290.486C124.951 290.516 125.212 290.547 125.494 290.597C125.756 291.063 126.038 291.548 126.31 292.034C125.807 291.963 125.313 291.892 124.82 291.822C123.994 291.72 123.289 291.832 122.705 292.176C122.121 292.52 121.809 292.975 121.809 293.572C121.809 293.987 122.05 294.381 122.483 294.735C122.957 295.079 123.5 295.302 124.135 295.393C124.86 295.484 125.595 295.353 126.32 294.968C127.075 294.604 127.75 294.027 128.334 293.258C128.344 291.285 128.344 289.333 128.334 287.4C127.347 287.248 126.35 287.117 125.363 286.985C125.363 286.581 125.363 286.186 125.374 285.802C127.589 286.105 129.804 286.419 132.02 286.722C132.01 287.107 132.02 287.511 132.02 287.886C131.244 287.795 130.479 287.694 129.714 287.592C129.704 291.629 129.714 295.727 129.704 299.896C129.25 299.825 128.787 299.764 128.344 299.693C128.344 298.176 128.344 296.658 128.344 295.15C127.75 295.778 127.106 296.223 126.37 296.506C125.645 296.789 124.9 296.86 124.135 296.749Z" fill="#CBA96D"/>
<path d="M135.262 292.661C136.884 292.833 138.515 293.005 140.156 293.167C140.156 291.71 140.156 290.263 140.156 288.827C138.525 288.665 136.894 288.483 135.252 288.311C135.262 289.737 135.252 291.194 135.262 292.661ZM131.456 287.815C131.466 287.43 131.466 287.036 131.456 286.651C135.585 287.157 139.693 287.623 143.832 288.017C143.832 288.382 143.832 288.766 143.822 289.151C143.046 289.08 142.271 289.009 141.506 288.958C141.506 292.965 141.506 297.093 141.506 301.393C141.042 301.342 140.589 301.282 140.156 301.231C140.156 298.944 140.146 296.698 140.156 294.503C138.525 294.341 136.894 294.169 135.262 293.997C135.262 294.3 135.252 294.624 135.262 294.948C135.262 295.16 135.222 295.353 135.141 295.504C135.051 295.666 134.96 295.737 134.859 295.727C134.547 295.676 134.004 295.282 133.258 294.503C132.503 293.734 132.141 293.198 132.141 292.945C132.141 292.763 132.211 292.621 132.352 292.51C132.483 292.378 132.644 292.348 132.815 292.368C133.168 292.398 133.54 292.449 133.903 292.499C133.903 291.022 133.903 289.565 133.913 288.129C133.097 288.038 132.271 287.916 131.456 287.815Z" fill="#CBA96D"/>
<path d="M139.683 287.643C139.21 287.218 138.867 286.783 138.606 286.338C138.324 285.872 138.183 285.417 138.183 284.982C138.183 284.233 138.515 283.657 139.159 283.222C139.774 282.776 140.549 282.635 141.455 282.736C141.707 282.766 141.949 282.807 142.201 282.878C142.442 282.938 142.694 283.019 142.946 283.13C142.936 283.464 142.936 283.818 142.936 284.183C142.563 284.021 142.261 283.899 142.009 283.818C141.767 283.738 141.586 283.697 141.455 283.657C140.922 283.616 140.479 283.717 140.106 283.99C139.743 284.294 139.552 284.678 139.552 285.144C139.552 285.589 139.723 286.075 140.076 286.56C140.418 287.036 140.871 287.441 141.455 287.815C140.871 287.754 140.277 287.704 139.683 287.643Z" fill="#CBA96D"/>
<path d="M143.278 289.11C143.278 288.726 143.278 288.341 143.278 287.967C147.004 288.169 150.74 288.28 154.486 288.29C154.486 288.655 154.496 289.029 154.486 289.403C152.996 289.434 151.485 289.434 150.005 289.424C150.005 290.527 150.005 291.639 149.995 292.773C150.005 293.107 149.964 293.43 149.924 293.734C151.525 293.744 153.137 293.744 154.748 293.724C154.758 294.128 154.758 294.533 154.758 294.938C152.955 294.958 151.153 294.958 149.34 294.938C149.068 295.272 148.776 295.454 148.444 295.535C147.82 295.646 147.427 295.616 147.296 295.403C148.504 297.326 149.733 299.278 150.961 301.251C150.629 301.504 150.327 301.747 149.995 302C147.961 298.762 145.926 295.606 143.892 292.53C144.255 292.287 144.617 292.044 144.98 291.801C145.393 292.51 145.806 293.076 146.208 293.521C146.621 293.946 146.994 294.159 147.326 294.179C147.689 294.189 147.991 294.068 148.243 293.825C148.504 293.582 148.635 293.268 148.635 292.894C148.635 291.71 148.635 290.547 148.635 289.393C146.843 289.312 145.06 289.221 143.278 289.11Z" fill="#CBA96D"/>
<path d="M155.08 294.938C155.08 294.058 155.362 293.319 155.916 292.712C156.48 292.095 157.134 291.781 157.92 291.751C159.682 291.629 161.444 291.498 163.217 291.356C163.217 290.537 163.217 289.707 163.217 288.898C160.125 289.13 157.034 289.312 153.942 289.434C153.942 289.039 153.942 288.675 153.942 288.311C158.252 288.098 162.572 287.785 166.892 287.37C166.892 287.734 166.892 288.129 166.892 288.513C166.117 288.594 165.351 288.675 164.576 288.756C164.586 292.773 164.586 296.901 164.586 301.16C164.113 301.201 163.67 301.251 163.207 301.312C163.217 298.358 163.217 295.484 163.217 292.682C161.444 292.823 159.682 292.945 157.92 293.056C157.487 293.066 157.154 293.248 156.842 293.623C156.56 293.977 156.419 294.391 156.409 294.877C156.409 295.757 156.732 296.698 157.346 297.71C157.97 298.712 158.836 299.663 159.944 300.594C159.682 300.958 159.41 301.322 159.138 301.707C157.859 300.604 156.862 299.46 156.147 298.267C155.422 297.103 155.07 295.98 155.08 294.938Z" fill="#CBA96D"/>
<path d="M167.476 293.997C167.476 293.127 167.748 292.388 168.312 291.741C168.876 291.073 169.53 290.709 170.316 290.618C172.078 290.385 173.84 290.162 175.613 289.909C175.603 289.08 175.613 288.23 175.613 287.41C172.511 287.815 169.43 288.21 166.338 288.564C166.338 288.189 166.338 287.805 166.338 287.43C170.648 286.884 174.958 286.307 179.288 285.7C179.278 286.085 179.288 286.479 179.288 286.884C178.513 286.975 177.748 287.086 176.982 287.208C176.982 291.255 176.972 295.363 176.982 299.511C176.519 299.572 176.066 299.643 175.613 299.713C175.613 296.85 175.603 294.027 175.613 291.245C173.84 291.467 172.078 291.71 170.316 291.933C169.893 291.973 169.551 292.176 169.249 292.57C168.967 292.945 168.826 293.37 168.826 293.845C168.826 294.725 169.128 295.626 169.742 296.547C170.366 297.477 171.232 298.358 172.35 299.157C172.078 299.531 171.806 299.896 171.534 300.28C170.266 299.319 169.259 298.297 168.534 297.184C167.839 296.091 167.476 295.029 167.476 293.997Z" fill="#CBA96D"/>
<path d="M178.734 286.965C178.734 286.56 178.734 286.166 178.724 285.781C179.47 285.67 180.205 285.549 180.93 285.458C179.298 283.778 177.657 282.139 176.026 280.51C176.318 280.217 176.63 279.903 176.962 279.609C178.734 281.441 180.507 283.323 182.289 285.245C183.095 285.134 183.9 285.012 184.716 284.901C184.716 285.296 184.716 285.68 184.716 286.085C183.931 286.196 183.155 286.307 182.39 286.439C182.39 290.486 182.39 294.594 182.39 298.722C181.937 298.783 181.474 298.853 181.041 298.924C181.041 294.786 181.03 290.688 181.041 286.631C180.275 286.732 179.49 286.834 178.734 286.965Z" fill="#CBA96D"/>
<path d="M210.234 288.522C209.306 288.999 208.084 288.95 206.57 288.385C205.036 287.821 203.464 286.828 201.861 285.436C202.2 285.111 202.542 284.787 202.887 284.462C204.284 285.689 205.603 286.584 206.863 287.13C208.104 287.655 209.052 287.762 209.706 287.431C210.126 287.217 210.429 286.896 210.585 286.468C210.752 286.03 210.752 285.611 210.556 285.221C210.283 284.598 209.794 284.053 209.11 283.615C208.456 283.138 207.645 282.788 206.687 282.554C208.518 281.62 210.315 280.669 212.08 279.702C211.755 278.955 211.435 278.216 211.123 277.482C207.515 279.403 203.74 281.217 199.8 282.924C199.65 282.606 199.507 282.285 199.37 281.96C204.522 279.702 209.351 277.239 213.858 274.571C213.995 274.883 214.135 275.201 214.278 275.525C213.627 275.941 212.972 276.353 212.315 276.762C213.787 280.02 215.327 283.32 216.936 286.662C216.519 286.889 216.099 287.113 215.675 287.334C214.614 285.134 213.578 282.947 212.569 280.773C211.579 281.324 210.582 281.866 209.579 282.398C210.097 282.613 210.546 282.905 210.927 283.284C211.289 283.654 211.592 284.073 211.816 284.56C212.139 285.26 212.158 286 211.846 286.779C211.543 287.548 211.015 288.123 210.234 288.522Z" fill="#CBA96D"/>
<path d="M221.82 279.731C222.445 279.361 222.944 278.855 223.315 278.212C223.706 277.541 223.911 276.82 223.94 276.041C223.035 274.296 222.123 272.55 221.205 270.804C219.961 271.661 218.717 272.521 217.473 273.384C217.922 273.549 218.313 273.763 218.665 274.046C219.007 274.318 219.27 274.64 219.456 275.009C219.788 275.662 219.808 276.411 219.515 277.249C219.241 278.076 218.723 278.796 217.981 279.419C218.372 279.926 218.938 280.208 219.661 280.276C220.394 280.335 221.107 280.159 221.82 279.731ZM213.809 275.827C213.673 275.509 213.533 275.188 213.389 274.863C216.815 272.482 220.228 270.09 223.628 267.689C223.816 268.039 224.009 268.393 224.204 268.75C223.579 269.178 222.95 269.607 222.318 270.035C224.162 273.52 225.989 276.999 227.799 280.471C227.408 280.711 227.011 280.948 226.607 281.181C225.995 280 225.383 278.826 224.771 277.657C224.536 278.368 224.214 279.011 223.803 279.556C223.393 280.101 222.924 280.529 222.387 280.841C221.234 281.522 220.052 281.717 218.841 281.425C217.639 281.123 216.779 280.422 216.252 279.322C217.16 278.787 217.795 278.193 218.167 277.55C218.528 276.888 218.577 276.285 218.313 275.749C218.147 275.409 217.864 275.097 217.492 274.844C217.111 274.591 216.672 274.406 216.144 274.299C215.376 274.805 214.597 275.315 213.809 275.827Z" fill="#CBA96D"/>
<path d="M228.512 269.431C228.288 269.577 228.034 269.607 227.78 269.519C227.516 269.431 227.32 269.246 227.164 268.974C227.027 268.711 226.979 268.448 227.027 268.156C227.086 267.864 227.213 267.65 227.447 267.504C227.701 267.348 227.965 267.309 228.249 267.387C228.532 267.465 228.747 267.63 228.893 267.893C229.04 268.176 229.079 268.458 229.001 268.76C228.932 269.052 228.766 269.276 228.512 269.431ZM232.44 276.1C232.205 276.246 231.961 276.275 231.717 276.187C231.453 276.1 231.258 275.925 231.111 275.662C230.974 275.409 230.935 275.136 231.004 274.863C231.062 274.571 231.209 274.357 231.443 274.221C231.697 274.055 231.961 274.017 232.244 274.114C232.518 274.182 232.733 274.338 232.869 274.601C233.006 274.873 233.036 275.156 232.957 275.448C232.869 275.73 232.703 275.954 232.44 276.1Z" fill="#CBA96D"/>
<path d="M79.8865 275.02C80.4726 275.39 81.1174 275.585 81.811 275.594C82.5144 275.604 83.1788 275.419 83.804 275.069C84.7419 273.362 85.6765 271.658 86.6078 269.958C85.3964 269.114 84.1752 268.274 82.9443 267.436C83.0224 267.982 83.0224 268.488 82.9541 268.994C82.8857 269.481 82.7587 269.909 82.5437 270.279C82.1725 270.941 81.5961 271.35 80.8048 271.525C80.0232 271.71 79.2026 271.623 78.3527 271.272C78.1377 271.934 78.1671 272.615 78.4504 273.326C78.7434 274.027 79.2221 274.592 79.8865 275.02ZM79.398 265.051C79.5934 264.701 79.792 264.35 79.9939 264C83.3676 266.31 86.7251 268.64 90.0662 270.99C89.8903 271.314 89.7145 271.639 89.5386 271.963C88.9199 271.548 88.3077 271.129 87.702 270.707C85.8719 274.05 84.0189 277.412 82.1432 280.793C81.7589 280.566 81.3779 280.335 81.0002 280.102C81.645 278.946 82.2897 277.791 82.9345 276.636C82.2507 276.792 81.5961 276.821 80.9513 276.733C80.3359 276.656 79.7692 276.451 79.2612 276.13C78.1964 275.458 77.4832 274.485 77.151 273.209C76.8384 271.934 77.0143 270.717 77.6493 269.588C78.4992 270.123 79.2612 270.396 79.9451 270.396C80.6289 270.376 81.137 270.094 81.4398 269.549C81.645 269.189 81.772 268.751 81.8013 268.235C81.8306 267.719 81.7817 267.154 81.645 266.551C80.896 266.044 80.147 265.545 79.398 265.051Z" fill="#CBA96D"/>
<path d="M87.5555 276.85C87.9365 276.149 88.4835 275.701 89.2065 275.507C89.9294 275.322 90.6133 275.419 91.2483 275.828C92.7267 276.724 94.2214 277.61 95.7324 278.486C96.0776 277.817 96.4196 277.155 96.7582 276.5C94.1596 274.929 91.6065 273.316 89.099 271.661C89.2749 271.337 89.4475 271.012 89.6168 270.688C93.1142 272.998 96.7257 275.208 100.451 277.317C100.295 277.616 100.138 277.921 99.9821 278.233C99.2983 277.882 98.6177 277.525 97.9403 277.162C96.2665 280.368 94.5308 283.629 92.7332 286.945C92.3359 286.731 91.9387 286.511 91.5414 286.283C92.7788 284.018 93.9902 281.77 95.1756 279.537C93.6646 278.667 92.1666 277.785 90.6817 276.889C90.3397 276.685 89.9685 276.636 89.5777 276.763C89.1869 276.899 88.8939 277.152 88.6789 277.541C88.2979 278.242 88.1416 279.148 88.2198 280.267C88.3077 281.377 88.6301 282.594 89.1576 283.908C88.7864 284.031 88.4119 284.158 88.0342 284.288C87.4284 282.769 87.0865 281.358 86.9888 280.053C86.9107 278.749 87.1061 277.678 87.5555 276.85Z" fill="#CBA96D"/>
<path d="M99.4839 277.979C99.6402 277.674 99.7965 277.366 99.9528 277.055C100.617 277.392 101.281 277.723 101.946 278.048C101.184 275.841 100.415 273.634 99.6402 271.428C99.9919 271.395 100.34 271.363 100.686 271.33C101.539 273.745 102.372 276.182 103.186 278.641C103.949 278.985 104.714 279.323 105.482 279.654C105.313 279.972 105.144 280.293 104.974 280.618C104.245 280.293 103.522 279.962 102.805 279.625C101.073 282.883 99.295 286.183 97.4714 289.525C97.0741 289.311 96.6801 289.1 96.2893 288.892C98.0999 285.557 99.8584 282.269 101.565 279.031C100.874 278.687 100.181 278.336 99.4839 277.979Z" fill="#CBA96D"/>
</g>
<defs>
<clipPath id="clip0_1_2">
<rect width="309" height="309" fill="white"/>
</clipPath>
</defs>
</svg>
